<svg version="1.1" id="Layer_1" xmlns="http://www.w3.org/2000/svg" xmlns:xlink="http://www.w3.org/1999/xlink" x="0px" y="0px"
	 width="600" height="600" viewBox="0 0 600 600" enable-background="new 0 0 600 600" xml:space="preserve">
<path fill="#F7F4ED" opacity="1.000000" stroke="none" 
	d="
M336.000000,601.000000 
	C224.000000,601.000000 112.500000,601.000000 1.000000,601.000000 
	C1.000000,401.000000 1.000000,201.000000 1.000000,1.000000 
	C200.666672,1.000000 400.333344,1.000000 600.000000,1.000000 
	C600.000000,201.000000 600.000000,401.000000 600.000000,601.000000 
	C512.166687,601.000000 424.333344,601.000000 336.000000,601.000000 
M411.767395,465.846222 
	C416.189667,464.263794 420.611969,462.681335 425.780640,461.017853 
	C434.517761,455.998138 443.254852,450.978424 452.619781,445.727783 
	C466.474609,434.766449 477.449890,421.579895 484.587769,404.562744 
	C486.371460,399.044800 488.155121,393.526855 490.080872,387.235687 
	C490.986755,382.156006 491.892639,377.076294 492.928864,371.170685 
	C493.215881,367.779846 493.502899,364.389008 493.912628,360.152130 
	C493.543304,357.439087 493.173981,354.726074 492.934082,351.181366 
	C492.903961,349.786499 492.873871,348.391663 492.924347,346.215302 
	C492.308777,343.798645 491.693207,341.381989 491.013702,338.181549 
	C490.621887,336.452301 490.230103,334.723083 489.934540,332.277832 
	C489.408020,330.464417 488.881500,328.650970 488.218597,326.194885 
	C487.760773,325.461487 487.302948,324.728088 486.969391,323.308075 
	C486.460754,321.838745 485.952148,320.369446 485.243835,318.199036 
	C484.423767,316.458923 483.603729,314.718811 482.640381,312.320984 
	C481.150696,309.770844 479.661011,307.220734 478.020111,304.025360 
	C476.699341,302.311096 475.378571,300.596832 473.786499,298.263092 
	C471.570465,295.485962 469.354431,292.708832 466.830750,289.326904 
	C464.267853,286.864105 461.704956,284.401306 458.842529,281.330383 
	C455.557251,278.607086 452.271942,275.883820 448.361755,272.849121 
	C445.240234,270.941040 442.118744,269.032990 438.383301,266.782227 
	C434.936981,265.141449 431.490662,263.500641 427.720123,261.215546 
	C422.813324,259.520599 417.906525,257.825684 412.207947,255.989487 
	C407.814697,255.297989 403.421478,254.606491 398.536865,253.230576 
	C390.354523,253.022171 382.172180,252.813751 373.090302,252.344315 
	C366.686768,252.322159 360.278137,252.428101 353.883728,252.175110 
	C352.523499,252.121292 351.215027,250.760101 350.041016,249.075500 
	C349.987946,241.717682 349.934875,234.359863 350.041504,226.076401 
	C349.696014,217.489807 349.988403,208.816299 348.833527,200.339981 
	C347.567688,191.049103 345.920044,181.596344 342.755951,172.820892 
	C335.316223,152.187531 322.359955,135.214691 304.152802,122.944954 
	C296.148376,117.550804 286.785461,114.172592 277.679871,109.223602 
	C269.786255,107.535912 261.892639,105.848221 253.142136,104.022667 
	C249.760239,103.735344 246.378326,103.448029 242.094391,103.023643 
	C237.061798,103.416931 232.029221,103.810211 226.187332,104.089188 
	C219.792465,105.763855 213.397598,107.438515 206.243744,109.024239 
	C201.152725,111.324028 196.061691,113.623825 190.335175,116.213356 
	C186.522766,118.721825 182.710358,121.230293 178.202377,123.890961 
	C174.790146,126.894859 171.377914,129.898758 167.345108,133.167191 
	C164.217224,136.745193 161.089340,140.323181 157.334564,144.188934 
	C154.557556,148.458252 151.780533,152.727554 148.446686,157.398895 
	C146.608521,161.221817 144.770355,165.044739 142.336609,169.305420 
	C141.166580,172.843399 139.996552,176.381393 138.221252,180.386200 
	C137.200150,185.252747 136.179047,190.119278 135.019318,195.839874 
	C134.768021,201.886490 134.516708,207.933121 134.105530,214.898682 
	C134.158813,219.262070 134.212112,223.625458 134.111908,228.812592 
	C134.158295,230.204636 134.204681,231.596664 134.102173,233.912552 
	C134.154358,238.934677 134.206543,243.956818 134.104980,249.903412 
	C134.156265,254.928696 134.207535,259.953979 134.104599,265.905853 
	C134.156937,270.931183 134.209274,275.956543 134.106186,281.908203 
	C134.156891,286.940094 134.207581,291.972015 134.116699,297.919464 
	C134.168533,301.949554 134.220367,305.979675 134.128204,310.914154 
	C134.173676,314.271179 134.219147,317.628204 134.112228,321.886780 
	C134.160736,324.926178 134.209244,327.965607 134.118683,331.923676 
	C134.166275,336.285675 134.213882,340.647675 134.123947,345.908356 
	C134.173599,348.939789 134.223267,351.971191 134.123245,355.909210 
	C134.174118,359.276184 134.225006,362.643158 134.131226,366.907043 
	C134.181763,369.942322 134.232300,372.977570 134.137283,376.921844 
	C134.190826,380.618835 134.244354,384.315796 134.148163,388.928864 
	C134.195892,393.279938 134.243622,397.630981 134.125549,402.909821 
	C134.176468,409.935120 134.227371,416.960419 134.119995,424.906952 
	C134.169144,429.597412 134.218292,434.287872 134.106979,439.903931 
	C134.168137,444.931305 134.229294,449.958679 134.126633,455.907410 
	C134.126633,460.097382 134.126633,464.287323 134.126633,468.707245 
	C139.576584,468.707245 144.294434,468.707245 149.933121,468.853760 
	C154.961456,468.814209 159.989777,468.774658 165.942673,468.870941 
	C171.970078,468.827972 177.997467,468.785034 184.947540,468.876434 
	C190.304153,468.828339 195.660751,468.780212 201.941971,468.874329 
	C213.299057,468.832611 224.656128,468.790863 236.938736,468.889740 
	C245.239853,468.908142 253.541000,468.954163 261.842072,468.940033 
	C292.885956,468.887177 323.929810,468.814667 355.902802,468.911682 
	C366.929474,468.859955 377.956177,468.808228 389.871704,468.906311 
	C396.914856,467.869476 403.958008,466.832611 411.767395,465.846222 
z"/>
<path fill="#FE7903" opacity="1.000000" stroke="none" 
	d="
M278.039337,109.879066 
	C286.785461,114.172592 296.148376,117.550804 304.152802,122.944954 
	C322.359955,135.214691 335.316223,152.187531 342.755951,172.820892 
	C345.920044,181.596344 347.567688,191.049103 348.833527,200.339981 
	C349.988403,208.816299 349.696014,217.489807 349.558990,226.540192 
	C345.057312,227.990356 341.085602,229.292419 337.010254,229.905304 
	C323.547943,231.929886 310.152618,231.591217 297.260590,226.816696 
	C287.946198,223.367111 277.807495,220.104279 272.158813,211.603439 
	C266.640869,203.299362 262.684174,193.766006 259.221466,184.339081 
	C255.334564,173.757355 255.818741,162.652985 257.908905,151.548615 
	C260.659332,136.936417 265.563599,123.512611 276.496521,112.884239 
	C277.261597,112.140495 277.536499,110.892548 278.039337,109.879066 
z"/>
<path fill="#FE6E03" opacity="1.000000" stroke="none" 
	d="
M277.859619,109.551331 
	C277.536499,110.892548 277.261597,112.140495 276.496521,112.884239 
	C265.563599,123.512611 260.659332,136.936417 257.908905,151.548615 
	C255.818741,162.652985 255.334564,173.757355 259.221466,184.339081 
	C262.684174,193.766006 266.640869,203.299362 272.158813,211.603439 
	C277.807495,220.104279 287.946198,223.367111 297.260590,226.816696 
	C310.152618,231.591217 323.547943,231.929886 337.010254,229.905304 
	C341.085602,229.292419 345.057312,227.990356 349.479126,227.003006 
	C349.934875,234.359863 349.987946,241.717682 349.557007,249.539597 
	C340.757477,251.332932 332.426605,253.825714 324.130035,253.716507 
	C311.930695,253.555923 299.776855,251.725464 288.300018,246.689835 
	C275.906769,241.252106 263.625641,235.607147 255.207306,224.554413 
	C243.309891,208.933929 235.742065,191.209534 234.168228,171.619080 
	C232.363922,149.160080 239.243622,128.710098 251.400742,109.918617 
	C252.531647,108.170578 253.145218,106.087852 253.999008,104.160530 
	C261.892639,105.848221 269.786255,107.535912 277.859619,109.551331 
z"/>
<path fill="#FE6507" opacity="1.000000" stroke="none" 
	d="
M253.570572,104.091599 
	C253.145218,106.087852 252.531647,108.170578 251.400742,109.918617 
	C239.243622,128.710098 232.363922,149.160080 234.168228,171.619080 
	C235.742065,191.209534 243.309891,208.933929 255.207306,224.554413 
	C263.625641,235.607147 275.906769,241.252106 288.300018,246.689835 
	C299.776855,251.725464 311.930695,253.555923 324.130035,253.716507 
	C332.426605,253.825714 340.757477,251.332932 349.477844,250.002441 
	C351.215027,250.760101 352.523499,252.121292 353.883728,252.175110 
	C360.278137,252.428101 366.686768,252.322159 373.530243,252.805664 
	C369.890045,255.824554 366.096039,259.168213 361.671234,260.778809 
	C351.950104,264.317200 341.909912,266.979065 331.533203,269.999207 
	C323.009338,269.329926 314.786407,269.463715 306.925964,267.841278 
	C282.422577,262.783722 260.546417,252.380829 242.993469,233.627411 
	C242.844772,232.615952 242.877960,231.854599 242.533463,231.352264 
	C234.649628,219.856430 229.985352,206.955826 226.065170,193.732025 
	C222.427719,181.461960 221.917953,168.769913 223.347260,156.309357 
	C225.274185,139.510574 232.227280,124.210739 240.596344,109.586967 
	C241.717163,107.628464 242.211807,105.311607 242.996429,103.160706 
	C246.378326,103.448029 249.760239,103.735344 253.570572,104.091599 
z"/>
<path fill="#6A78FD" opacity="1.000000" stroke="none" 
	d="
M354.973694,468.749512 
	C323.929810,468.814667 292.885956,468.887177 261.842072,468.940033 
	C253.541000,468.954163 245.239853,468.908142 236.460022,468.467255 
	C234.407486,466.765564 232.991562,465.188568 231.233719,464.256287 
	C221.028595,458.843781 210.744156,453.580811 200.483795,448.272522 
	C198.143829,447.061951 195.600708,446.136627 193.495880,444.605927 
	C190.813934,442.655609 188.482529,440.223297 186.328812,437.858124 
	C191.104462,438.143768 195.551315,438.570038 200.375153,439.162598 
	C210.507324,440.943695 220.254196,442.611023 230.019684,444.161102 
	C244.671356,446.486786 259.318878,448.849915 274.001984,450.961975 
	C282.321533,452.158661 290.691650,453.099976 299.070129,453.763153 
	C306.976898,454.389069 314.922058,454.585388 322.854889,454.807678 
	C328.259949,454.959137 333.691040,454.549683 339.077545,454.899170 
	C345.487335,455.315002 351.855652,456.338531 358.255066,456.964233 
	C360.483643,457.182159 362.751373,456.999634 364.962891,457.354126 
	C362.570404,460.294464 360.210968,462.875916 357.864502,465.469116 
	C356.886688,466.549744 355.936493,467.655304 354.973694,468.749512 
z"/>
<path fill="#8172FC" opacity="1.000000" stroke="none" 
	d="
M134.291351,401.982056 
	C134.243622,397.630981 134.195892,393.279938 134.595215,388.481262 
	C141.360992,389.690735 147.679718,391.347809 154.056488,393.346741 
	C161.060120,397.411560 167.641098,402.288086 175.025681,404.622284 
	C191.423080,409.805328 208.186172,413.859650 224.868027,418.107727 
	C248.831192,424.209991 273.333801,427.237488 297.913574,428.769104 
	C315.996063,429.895844 334.206604,429.109131 352.357941,428.943481 
	C366.393616,428.815369 380.429535,428.028778 394.457489,428.196045 
	C398.319458,428.242096 402.153168,430.659637 405.887390,432.206848 
	C405.574432,432.696167 405.315247,432.888763 404.559723,433.001587 
	C402.333771,433.194427 400.542938,433.367065 398.757690,433.585327 
	C389.504364,434.716705 380.252411,435.859772 370.716064,436.718567 
	C366.499756,436.625153 362.564484,437.018219 358.635437,436.963440 
	C340.513184,436.710785 322.381226,436.623474 304.275116,435.909119 
	C289.718079,435.334839 274.988708,435.132446 260.697388,432.668182 
	C232.997726,427.891968 205.552444,421.640259 177.684143,415.857605 
	C169.251572,412.755402 161.195892,409.613922 152.988892,406.936340 
	C150.191025,406.023529 147.012543,406.277344 143.688934,405.855652 
	C140.343689,404.469482 137.317505,403.225769 134.291351,401.982056 
z"/>
<path fill="#8F6FF9" opacity="1.000000" stroke="none" 
	d="
M153.998459,393.004883 
	C147.679718,391.347809 141.360992,389.690735 134.670074,388.023193 
	C134.244354,384.315796 134.190826,380.618835 134.605988,376.464661 
	C138.272308,376.781952 141.604095,377.210571 144.644577,378.390106 
	C158.574844,383.794312 172.177185,390.164307 186.353973,394.786774 
	C213.937088,403.780548 241.951233,411.279572 271.269653,414.273987 
	C273.358673,414.698669 275.179291,414.848175 277.333435,414.998322 
	C278.111725,414.998901 278.556458,414.998840 279.284637,415.279419 
	C289.449951,416.373322 299.328339,417.812561 309.214447,417.867828 
	C328.983093,417.978333 348.761169,417.504883 368.524567,416.912872 
	C376.775330,416.665741 385.149475,416.240967 393.202850,414.598846 
	C409.891388,411.195984 426.402771,406.924469 443.180450,403.268616 
	C444.913177,405.026520 446.452454,406.525970 447.830994,408.325623 
	C442.108795,411.751343 436.547272,414.876862 430.562195,418.000061 
	C427.184906,417.675781 424.188049,416.866516 421.285583,417.123505 
	C412.730499,417.880920 404.231476,419.270935 395.676514,420.030304 
	C379.203247,421.492554 362.726288,423.361633 346.215118,423.847595 
	C319.347382,424.638336 292.414642,424.596252 265.809601,419.955078 
	C247.582474,416.775391 229.342606,413.432983 211.374664,409.067566 
	C192.086929,404.381531 173.110641,398.413513 153.998459,393.004883 
z"/>
<path fill="#FE5E06" opacity="1.000000" stroke="none" 
	d="
M242.545410,103.092178 
	C242.211807,105.311607 241.717163,107.628464 240.596344,109.586967 
	C232.227280,124.210739 225.274185,139.510574 223.347260,156.309357 
	C221.917953,168.769913 222.427719,181.461960 226.065170,193.732025 
	C229.985352,206.955826 234.649628,219.856430 242.533463,231.352264 
	C242.877960,231.854599 242.844772,232.615952 242.693787,233.477432 
	C233.281693,224.468369 226.352188,213.737930 220.521362,202.205902 
	C217.902298,197.025940 214.854477,192.062759 212.000900,186.565674 
	C211.332901,180.753418 210.665222,175.376709 209.998260,169.534332 
	C210.027039,165.258240 209.696671,161.405060 210.145294,157.644821 
	C212.081238,141.418274 216.793869,126.041214 224.614334,111.626274 
	C225.832031,109.381821 226.223251,106.688988 226.996628,104.203491 
	C232.029221,103.810211 237.061798,103.416931 242.545410,103.092178 
z"/>
<path fill="#C163DA" opacity="1.000000" stroke="none" 
	d="
M492.804657,352.013031 
	C493.173981,354.726074 493.543304,357.439087 493.485413,360.585388 
	C489.833496,362.260406 486.546387,363.363556 483.400787,364.780762 
	C479.867096,366.372772 476.461121,368.248352 472.617371,370.007568 
	C469.282349,371.039520 466.395477,372.354614 463.366180,373.042694 
	C442.110138,377.871033 420.940216,383.207275 399.509064,387.091797 
	C384.618774,389.790741 369.386505,391.173340 354.251770,391.792206 
	C339.204895,392.407532 324.088898,391.333344 308.715942,390.719421 
	C301.734161,389.497559 294.954590,388.950745 288.363586,387.529419 
	C276.242218,384.915405 264.216003,381.849091 252.194794,378.795410 
	C250.661331,378.405884 249.395386,376.963287 248.400696,376.059509 
	C254.198898,377.073639 259.601898,378.036804 265.435455,379.000916 
	C267.348145,379.088959 268.876434,378.971375 270.305420,379.293915 
	C291.606934,384.101898 313.193176,386.107758 335.469788,386.000610 
	C360.154358,386.452972 384.181610,385.061340 407.997559,380.120483 
	C433.636230,374.801453 459.234589,369.612335 482.345978,356.401642 
	C485.603912,354.539368 489.307404,353.456604 492.804657,352.013031 
z"/>
<path fill="#B26BF3" opacity="1.000000" stroke="none" 
	d="
M134.272919,355.002625 
	C134.223267,351.971191 134.173599,348.939789 134.548859,345.466156 
	C137.105942,345.913513 139.300873,346.678070 141.360703,347.711823 
	C163.740814,358.943329 185.984634,370.477692 210.217468,378.276062 
	C217.645203,380.877747 224.785034,383.463562 232.084793,385.466492 
	C243.242310,388.527954 254.425018,391.609070 265.755585,393.896576 
	C276.732910,396.112762 287.910400,397.337402 299.173248,399.237213 
	C299.898895,399.650055 300.451263,399.823273 301.336365,399.996979 
	C302.112701,399.997101 302.556305,399.996704 303.276459,400.274902 
	C308.035309,401.369690 312.517670,402.185913 316.697754,403.289062 
	C314.764130,403.717377 313.122070,404.056030 311.503113,403.968262 
	C300.332306,403.362793 289.166321,402.668304 277.588989,401.991058 
	C272.313477,400.994049 267.437073,400.057983 262.583984,399.013702 
	C247.388153,395.743896 231.886719,393.455536 217.083298,388.902435 
	C194.072983,381.825226 171.510132,373.288727 150.068024,362.091064 
	C144.961670,359.424377 139.546204,357.349640 134.272919,355.002625 
z"/>
<path fill="#E451AC" opacity="1.000000" stroke="none" 
	d="
M488.354980,326.837555 
	C488.881500,328.650970 489.408020,330.464417 489.520508,332.646057 
	C476.449799,337.989044 463.959778,343.457886 451.089539,347.799561 
	C438.235474,352.135803 425.129639,355.920319 411.895233,358.877167 
	C399.667877,361.608978 387.165741,363.287628 374.703125,364.721497 
	C367.553375,365.544128 360.241364,364.956451 352.537598,365.002319 
	C346.786163,364.667938 341.503937,364.182281 336.212128,364.029510 
	C318.101837,363.506653 300.318726,360.689819 282.775604,356.355347 
	C275.441193,354.543182 268.254089,352.134827 260.944702,349.661865 
	C259.590881,347.886963 258.292389,346.447754 257.373322,345.053406 
	C261.244049,346.132935 264.684021,347.411957 268.235901,348.158417 
	C281.138611,350.870026 294.078827,353.403198 307.410950,356.059357 
	C320.799469,357.410431 333.757812,359.177917 346.772461,359.842926 
	C356.177704,360.323486 365.700714,359.788452 375.093445,358.891907 
	C386.258850,357.826141 397.468872,356.500000 408.434174,354.208282 
	C436.175323,348.410461 462.398224,337.963287 488.354980,326.837555 
z"/>
<path fill="#9B6FF9" opacity="1.000000" stroke="none" 
	d="
M279.001190,414.998779 
	C278.556458,414.998840 278.111725,414.998901 277.255554,414.638672 
	C274.896484,414.185211 272.948853,414.092010 271.001190,413.998779 
	C241.951233,411.279572 213.937088,403.780548 186.353973,394.786774 
	C172.177185,390.164307 158.574844,383.794312 144.644577,378.390106 
	C141.604095,377.210571 138.272308,376.781952 134.678757,376.010193 
	C134.232300,372.977570 134.181763,369.942322 134.568512,366.467285 
	C137.048630,366.705261 139.128586,367.288666 141.128616,368.075287 
	C161.994141,376.281647 182.592438,385.257507 203.766281,392.567535 
	C231.425476,402.116516 260.343475,406.368805 289.313293,409.879547 
	C292.131989,410.221161 295.100861,409.323578 298.376770,409.047333 
	C301.502380,409.730194 304.251190,410.366943 306.937195,411.356140 
	C304.085388,415.053925 300.786591,415.473328 296.703583,414.130829 
	C290.781311,412.183563 284.776398,412.167908 279.001190,414.998779 
z"/>
<path fill="#A66DF7" opacity="1.000000" stroke="none" 
	d="
M298.000000,409.001221 
	C295.100861,409.323578 292.131989,410.221161 289.313293,409.879547 
	C260.343475,406.368805 231.425476,402.116516 203.766281,392.567535 
	C182.592438,385.257507 161.994141,376.281647 141.128616,368.075287 
	C139.128586,367.288666 137.048630,366.705261 134.640839,366.018799 
	C134.225006,362.643158 134.174118,359.276184 134.198090,355.455933 
	C139.546204,357.349640 144.961670,359.424377 150.068024,362.091064 
	C171.510132,373.288727 194.072983,381.825226 217.083298,388.902435 
	C231.886719,393.455536 247.388153,395.743896 262.583984,399.013702 
	C267.437073,400.057983 272.313477,400.994049 277.664429,402.349060 
	C278.793884,403.146851 279.382233,403.768616 280.091034,403.973206 
	C286.048187,405.692474 292.027405,407.335358 298.000000,409.001221 
z"/>
<path fill="#FF3F41" opacity="1.000000" stroke="none" 
	d="
M459.142029,281.938507 
	C461.704956,284.401306 464.267853,286.864105 466.659546,289.774933 
	C459.203033,294.205231 452.089172,298.553986 444.583557,302.065369 
	C437.263123,305.490112 429.542267,308.059052 421.607727,311.051025 
	C418.324097,311.735657 415.451996,312.507629 412.531830,312.986786 
	C400.028168,315.038452 387.510376,317.003876 374.695923,318.713196 
	C364.983948,318.283508 355.572693,318.187073 346.164642,317.957764 
	C344.436035,317.915680 342.720612,317.334717 341.262390,316.730164 
	C344.684204,315.638580 347.842712,314.819305 351.412842,313.943726 
	C354.077423,313.592072 356.343964,313.374725 358.580963,312.986938 
	C366.060089,311.690430 373.528625,310.332947 381.439636,308.999512 
	C388.152893,307.711823 394.722595,307.210663 400.648560,304.990936 
	C420.271423,297.640625 439.662201,289.670685 459.142029,281.938507 
z"/>
<path fill="#F858B8" opacity="1.000000" stroke="none" 
	d="
M256.993896,345.008545 
	C258.292389,346.447754 259.590881,347.886963 260.555359,349.610809 
	C251.812195,347.263397 243.403046,344.631378 234.633179,341.954102 
	C230.646912,340.331787 226.809769,339.111816 223.434555,337.112183 
	C212.336411,330.536987 201.364197,323.745514 190.428024,316.902191 
	C184.859085,313.417358 179.470657,309.644073 173.846741,305.697968 
	C160.712585,294.234283 149.712692,281.264099 139.149353,267.870911 
	C138.055496,266.484009 135.914139,265.923309 134.258804,264.979279 
	C134.207535,259.953979 134.156265,254.928696 134.531158,249.454224 
	C136.719009,250.606125 138.880325,251.935593 140.181213,253.849838 
	C155.036850,275.710052 172.427521,295.105865 194.343750,310.151703 
	C196.449951,311.597656 198.772308,312.728790 201.050919,314.343689 
	C201.384201,315.082916 201.569244,315.644104 201.950775,315.863220 
	C217.177368,324.609955 232.372208,333.414551 247.709045,341.964294 
	C250.501816,343.521118 253.883881,344.020844 256.993896,345.008545 
z"/>
<path fill="#D65AC4" opacity="1.000000" stroke="none" 
	d="
M491.077667,338.965332 
	C491.693207,341.381989 492.308777,343.798645 492.518829,346.615295 
	C490.718781,347.522430 489.265564,347.909027 487.938599,348.555023 
	C470.683655,356.954956 452.330353,362.223602 433.890106,367.092987 
	C422.055359,370.218109 409.970551,372.396179 397.822449,374.780243 
	C397.098022,375.039520 396.549011,375.517334 395.624756,375.996094 
	C394.498901,375.997253 393.748352,375.997406 392.793640,375.751556 
	C391.726349,376.002075 390.863159,376.498596 389.624756,376.996124 
	C388.498932,376.997253 387.748383,376.997406 386.703461,376.713837 
	C384.105774,376.293427 381.799652,376.002899 379.499603,376.045013 
	C364.413177,376.321289 349.327637,376.878662 334.242859,376.846405 
	C330.492554,376.838379 326.746185,374.999664 323.466675,374.001648 
	C329.347626,374.000214 334.764923,374.125214 340.168457,373.907837 
	C341.469482,373.855499 342.724854,372.668304 344.469788,372.002380 
	C354.220795,371.671814 363.565521,371.902496 372.770966,370.879669 
	C386.385010,369.366974 400.024384,367.568420 413.431183,364.812469 
	C440.298401,359.289642 466.307831,350.921387 491.077667,338.965332 
z"/>
<path fill="#DE56B8" opacity="1.000000" stroke="none" 
	d="
M491.045685,338.573425 
	C466.307831,350.921387 440.298401,359.289642 413.431183,364.812469 
	C400.024384,367.568420 386.385010,369.366974 372.770966,370.879669 
	C363.565521,371.902496 354.220795,371.671814 344.015625,372.001373 
	C337.339386,371.649414 331.555542,371.553223 325.841400,370.871887 
	C320.522369,370.237732 315.277649,368.980499 310.300049,367.711853 
	C312.401978,367.284119 314.203644,367.025665 316.006256,367.019135 
	C326.710754,366.980408 337.416779,367.084106 348.118591,366.910797 
	C349.756378,366.884277 351.374939,365.669098 353.002380,365.003662 
	C360.241364,364.956451 367.553375,365.544128 374.703125,364.721497 
	C387.165741,363.287628 399.667877,361.608978 411.895233,358.877167 
	C425.129639,355.920319 438.235474,352.135803 451.089539,347.799561 
	C463.959778,343.457886 476.449799,337.989044 489.472382,333.004028 
	C490.230103,334.723083 490.621887,336.452301 491.045685,338.573425 
z"/>
<path fill="#CC5FD0" opacity="1.000000" stroke="none" 
	d="
M386.997833,376.997559 
	C387.748383,376.997406 388.498932,376.997253 389.961273,376.995117 
	C391.447968,376.661255 392.222900,376.329407 392.997803,375.997559 
	C393.748352,375.997406 394.498901,375.997253 395.920349,375.973450 
	C397.060120,375.632782 397.528992,375.315796 397.997833,374.998779 
	C409.970551,372.396179 422.055359,370.218109 433.890106,367.092987 
	C452.330353,362.223602 470.683655,356.954956 487.938599,348.555023 
	C489.265564,347.909027 490.718781,347.522430 492.478546,347.006042 
	C492.873871,348.391663 492.903961,349.786499 492.869385,351.597198 
	C489.307404,353.456604 485.603912,354.539368 482.345978,356.401642 
	C459.234589,369.612335 433.636230,374.801453 407.997559,380.120483 
	C384.181610,385.061340 360.154358,386.452972 335.388916,385.634888 
	C333.263428,384.692444 331.632385,384.230804 330.127228,383.507233 
	C328.683563,382.813232 327.370483,381.847534 326.468658,381.000671 
	C343.117249,380.326691 359.302063,379.747040 375.473602,378.911346 
	C379.337677,378.711670 383.157593,377.658295 386.997833,376.997559 
z"/>
<path fill="#F45CC8" opacity="1.000000" stroke="none" 
	d="
M134.181702,265.442566 
	C135.914139,265.923309 138.055496,266.484009 139.149353,267.870911 
	C149.712692,281.264099 160.712585,294.234283 173.884995,306.042572 
	C181.270737,317.272064 191.540085,324.480591 201.947571,331.343903 
	C211.013626,337.322601 220.625580,342.473541 229.887024,348.248962 
	C229.515167,349.003113 229.252609,349.498505 228.581635,349.994446 
	C226.412170,349.644897 224.466202,349.661316 222.921524,348.882202 
	C215.547623,345.162933 208.240265,341.305328 200.990753,337.347626 
	C193.613632,333.320251 186.331604,329.118683 178.967560,324.647888 
	C178.623627,323.724915 178.439102,323.028839 177.999237,322.587097 
	C164.862381,309.394165 151.725540,296.200867 138.494568,283.102692 
	C137.428513,282.047333 135.688461,281.672791 134.261612,280.981873 
	C134.209274,275.956543 134.156937,270.931183 134.181702,265.442566 
z"/>
<path fill="#D264E0" opacity="1.000000" stroke="none" 
	d="
M265.004883,379.000000 
	C259.601898,378.036804 254.198898,377.073639 247.980087,376.056519 
	C245.548233,375.749542 243.886307,375.658478 242.324020,375.215729 
	C235.200912,373.197021 228.105789,371.079529 220.937210,368.646301 
	C217.659943,366.736664 214.363846,365.326477 211.245407,363.596100 
	C188.446213,350.945221 165.686600,338.223053 142.902817,325.544342 
	C140.058517,323.961578 137.145691,322.501923 134.264618,320.985229 
	C134.219147,317.628204 134.173676,314.271179 134.544464,310.468140 
	C144.774200,316.649506 154.642593,323.197479 164.382797,329.930878 
	C171.431763,334.803894 177.940125,340.581451 185.363220,344.758423 
	C193.824997,349.519867 202.909668,353.266846 211.959091,356.862000 
	C219.120224,359.706970 226.637100,361.656494 234.061920,364.350586 
	C241.177872,367.808990 248.254318,370.862549 255.266388,374.057343 
	C258.576141,375.565308 261.762573,377.343994 265.004883,379.000000 
z"/>
<path fill="#FE5308" opacity="1.000000" stroke="none" 
	d="
M226.591980,104.146339 
	C226.223251,106.688988 225.832031,109.381821 224.614334,111.626274 
	C216.793869,126.041214 212.081238,141.418274 210.145294,157.644821 
	C209.696671,161.405060 210.027039,165.258240 209.629059,169.528442 
	C207.866592,169.042709 206.395920,168.192673 205.098328,167.131058 
	C202.679657,165.152267 200.361694,163.050400 198.001266,160.533020 
	C197.545456,148.209229 199.478226,136.685425 202.727432,125.324684 
	C204.263855,119.952682 205.584381,114.518951 207.002716,109.113190 
	C213.397598,107.438515 219.792465,105.763855 226.591980,104.146339 
z"/>
<path fill="#C16AF0" opacity="1.000000" stroke="none" 
	d="
M210.001190,377.999115 
	C185.984634,370.477692 163.740814,358.943329 141.360703,347.711823 
	C139.300873,346.678070 137.105942,345.913513 134.617615,345.016815 
	C134.213882,340.647675 134.166275,336.285675 134.536346,331.471619 
	C146.512253,337.712891 157.964508,344.599915 169.677383,351.010712 
	C174.845581,353.839386 180.542801,355.701508 186.058044,358.345459 
	C186.682587,359.254150 187.148117,360.039307 187.830368,360.352814 
	C199.088226,365.525909 210.393784,370.595490 221.636841,375.800232 
	C224.192444,376.983307 226.552811,378.588104 228.576996,379.999054 
	C226.534744,379.750671 224.925552,379.433838 223.300995,379.266510 
	C218.871201,378.810272 214.434906,378.417206 210.001190,377.999115 
z"/>
<path fill="#F8436F" opacity="1.000000" stroke="none" 
	d="
M474.057770,298.882568 
	C475.378571,300.596832 476.699341,302.311096 477.931274,304.681335 
	C471.528107,308.573395 465.331787,312.069611 458.877686,314.997589 
	C438.290436,324.337280 416.999939,331.550842 394.702942,335.637482 
	C389.762848,336.542908 384.898956,337.864136 379.601410,338.994354 
	C377.135101,338.665253 375.067413,338.335693 372.562103,338.004150 
	C370.081787,338.001068 368.039062,337.999908 365.959106,337.656769 
	C364.614136,336.210266 363.306458,335.105743 362.158203,333.762024 
	C362.878815,333.015228 363.440033,332.507599 364.396240,332.052551 
	C366.241364,332.384308 367.772095,333.115662 369.129211,332.873657 
	C384.677979,330.100616 400.774200,329.912811 415.511017,323.281555 
	C417.442261,322.412506 419.178192,321.109558 421.421143,320.006775 
	C427.872986,318.299469 434.163727,317.194000 439.889771,314.760010 
	C451.441559,309.849762 462.686340,304.217194 474.057770,298.882568 
z"/>
<path fill="#FE4A10" opacity="1.000000" stroke="none" 
	d="
M206.623230,109.068710 
	C205.584381,114.518951 204.263855,119.952682 202.727432,125.324684 
	C199.478226,136.685425 197.545456,148.209229 198.000549,161.001678 
	C198.666321,172.290970 199.332245,182.644882 199.651581,192.939209 
	C196.167847,186.282928 193.076584,179.663696 189.858505,173.106720 
	C189.132080,171.626587 187.964096,170.363174 186.999191,168.531342 
	C187.338837,156.844040 187.410965,145.608337 188.124146,134.413483 
	C188.519058,128.214905 189.986603,122.084663 190.970673,115.923615 
	C196.061691,113.623825 201.152725,111.324028 206.623230,109.068710 
z"/>
<path fill="#DC63DD" opacity="1.000000" stroke="none" 
	d="
M233.996002,364.003662 
	C226.637100,361.656494 219.120224,359.706970 211.959091,356.862000 
	C202.909668,353.266846 193.824997,349.519867 185.363220,344.758423 
	C177.940125,340.581451 171.431763,334.803894 164.382797,329.930878 
	C154.642593,323.197479 144.774200,316.649506 134.616455,310.015930 
	C134.220367,305.979675 134.168533,301.949554 134.536224,297.469727 
	C136.794846,298.006958 138.811371,298.763702 140.442474,300.020599 
	C147.687866,305.603760 154.822830,311.330231 162.036072,317.348206 
	C164.883072,320.700745 167.192947,324.538788 170.584335,326.579651 
	C187.724701,336.894501 205.146317,346.741943 222.469589,356.752838 
	C226.647354,359.167084 230.826202,361.579437 234.752411,363.995300 
	C234.332184,363.999847 234.164093,364.001740 233.996002,364.003662 
z"/>
<path fill="#FE3E32" opacity="1.000000" stroke="none" 
	d="
M157.961441,143.901169 
	C161.089340,140.323181 164.217224,136.745193 167.718613,133.455246 
	C168.727295,140.641998 169.003769,147.597839 170.091553,154.424408 
	C171.353287,162.342621 173.327423,170.147324 174.994385,178.421600 
	C176.507721,185.919327 177.353409,193.226028 179.693008,200.018143 
	C182.861450,209.216476 187.175552,218.020187 190.651062,226.954193 
	C189.142807,225.826279 187.674057,224.926239 186.870544,223.617722 
	C181.711975,215.217087 176.739227,206.702499 171.602921,198.287918 
	C170.641891,196.713516 169.217743,195.421799 167.996429,193.601776 
	C166.978806,189.378235 165.756424,185.594330 165.005066,181.719131 
	C162.564362,169.131149 160.296097,156.509720 157.961441,143.901169 
z"/>
<path fill="#6C80FC" opacity="1.000000" stroke="none" 
	d="
M186.000000,437.998779 
	C188.482529,440.223297 190.813934,442.655609 193.495880,444.605927 
	C195.600708,446.136627 198.143829,447.061951 200.483795,448.272522 
	C210.744156,453.580811 221.028595,458.843781 231.233719,464.256287 
	C232.991562,465.188568 234.407486,466.765564 235.997269,468.396973 
	C224.656128,468.790863 213.299057,468.832611 201.467621,468.455963 
	C197.164490,464.360229 193.733597,460.106445 189.421219,457.129669 
	C181.319244,451.536987 176.226059,444.042786 173.367615,435.043335 
	C177.824295,436.056793 181.912140,437.027802 186.000000,437.998779 
z"/>
<path fill="#7385FB" opacity="1.000000" stroke="none" 
	d="
M172.998779,435.000854 
	C176.226059,444.042786 181.319244,451.536987 189.421219,457.129669 
	C193.733597,460.106445 197.164490,464.360229 201.005310,468.384857 
	C195.660751,468.780212 190.304153,468.828339 184.471558,468.461243 
	C183.291763,467.012146 182.761902,465.783630 181.856979,464.974640 
	C173.493484,457.497437 165.016251,450.146729 156.708008,442.609344 
	C155.447662,441.465942 154.885239,439.553223 153.999634,437.561035 
	C153.745255,434.834534 153.090927,432.491882 153.376205,430.269897 
	C153.570297,428.758331 155.080276,427.415710 156.382507,426.005188 
	C157.691910,426.272461 158.729507,426.347961 159.531342,426.822144 
	C164.051819,429.495392 168.515640,432.264465 172.998779,435.000854 
z"/>
<path fill="#FB54A6" opacity="1.000000" stroke="none" 
	d="
M200.994324,314.006104 
	C198.772308,312.728790 196.449951,311.597656 194.343750,310.151703 
	C172.427521,295.105865 155.036850,275.710052 140.181213,253.849838 
	C138.880325,251.935593 136.719009,250.606125 134.608032,248.991989 
	C134.206543,243.956818 134.154358,238.934677 134.521881,233.464813 
	C136.366913,234.500534 138.051514,235.813873 139.160873,237.504654 
	C141.157913,240.548462 142.666489,243.910370 144.629532,246.979233 
	C158.755859,269.063232 175.673874,288.654205 196.306473,304.967743 
	C199.187454,307.245636 201.453140,310.301697 203.666016,313.001160 
	C202.550339,313.338531 201.772339,313.672302 200.994324,314.006104 
z"/>
<path fill="#FE550E" opacity="1.000000" stroke="none" 
	d="
M399.028229,253.914978 
	C403.421478,254.606491 407.814697,255.297989 412.558594,256.394745 
	C405.960724,262.522919 399.038849,268.278625 392.050018,273.951843 
	C389.446289,276.065460 386.686066,277.986298 383.580139,279.996338 
	C381.237427,280.341644 379.311188,280.682159 377.386322,281.030365 
	C371.923523,282.018585 366.461243,283.009888 360.568298,283.999878 
	C356.091492,282.999451 352.045135,281.999176 348.229767,280.733765 
	C350.089569,279.769043 351.801086,279.213837 353.329651,278.338989 
	C356.273651,276.654083 359.114166,274.788330 362.410431,272.997437 
	C367.779602,271.314117 373.106476,270.298004 377.608490,267.797089 
	C385.029022,263.674866 391.916199,258.592590 399.028229,253.914978 
z"/>
<path fill="#7B8FFA" opacity="1.000000" stroke="none" 
	d="
M154.000000,437.996338 
	C154.885239,439.553223 155.447662,441.465942 156.708008,442.609344 
	C165.016251,450.146729 173.493484,457.497437 181.856979,464.974640 
	C182.761902,465.783630 183.291763,467.012146 184.010223,468.394043 
	C177.997467,468.785034 171.970078,468.827972 165.467743,468.458954 
	C163.167557,465.796356 161.518280,463.369629 159.479782,461.332397 
	C155.423889,457.279114 151.241837,453.340668 146.947205,449.540955 
	C142.829117,445.897430 138.502441,442.489716 134.267441,438.978333 
	C134.218292,434.287872 134.169144,429.597412 134.545319,424.457336 
	C137.312607,425.668823 139.681702,427.293152 141.990509,428.999146 
	C146.013260,431.971680 149.998840,434.994568 154.000000,437.996338 
z"/>
<path fill="#CF67EA" opacity="1.000000" stroke="none" 
	d="
M185.999847,358.002441 
	C180.542801,355.701508 174.845581,353.839386 169.677383,351.010712 
	C157.964508,344.599915 146.512253,337.712891 134.605896,331.012268 
	C134.209244,327.965607 134.160736,324.926178 134.188416,321.436005 
	C137.145691,322.501923 140.058517,323.961578 142.902817,325.544342 
	C165.686600,338.223053 188.446213,350.945221 211.245407,363.596100 
	C214.363846,365.326477 217.659943,366.736664 220.539307,368.637939 
	C208.803162,365.321381 197.401505,361.661896 185.999847,358.002441 
z"/>
<path fill="#FE3E32" opacity="1.000000" stroke="none" 
	d="
M458.992279,281.634460 
	C439.662201,289.670685 420.271423,297.640625 400.648560,304.990936 
	C394.722595,307.210663 388.152893,307.711823 381.439209,308.571259 
	C380.999817,306.428619 380.999298,304.714905 381.334808,302.852356 
	C387.780975,300.468994 393.891083,298.234497 400.397003,295.991150 
	C412.243408,293.044495 424.017853,290.973846 433.992584,283.988251 
	C439.041779,280.452118 443.991791,276.774292 448.986664,273.160522 
	C452.271942,275.883820 455.557251,278.607086 458.992279,281.634460 
z"/>
<path fill="#FA549A" opacity="1.000000" stroke="none" 
	d="
M204.003662,312.997559 
	C201.453140,310.301697 199.187454,307.245636 196.306473,304.967743 
	C175.673874,288.654205 158.755859,269.063232 144.629532,246.979233 
	C142.666489,243.910370 141.157913,240.548462 139.160873,237.504654 
	C138.051514,235.813873 136.366913,234.500534 134.596313,233.002899 
	C134.204681,231.596664 134.158295,230.204636 134.541199,228.412109 
	C136.151947,229.018036 137.742813,229.794876 138.454742,231.064575 
	C154.787506,260.193573 176.690231,284.402649 203.248459,304.474976 
	C206.203079,306.708038 209.734146,308.178375 213.054047,310.340210 
	C213.386337,311.079742 213.577728,311.600769 213.950897,311.865967 
	C226.283096,320.629944 239.039322,328.635254 253.180130,334.260376 
	C254.996155,334.982788 256.405792,336.726807 257.751831,337.998596 
	C257.332123,338.000610 257.164215,338.001526 256.600098,337.993011 
	C243.807037,335.763153 233.600128,328.587769 222.667053,323.081024 
	C216.354462,319.901459 210.218903,316.370422 204.003662,312.997559 
z"/>
<path fill="#FE5E06" opacity="1.000000" stroke="none" 
	d="
M398.782532,253.572784 
	C391.916199,258.592590 385.029022,263.674866 377.608490,267.797089 
	C373.106476,270.298004 367.779602,271.314117 361.946167,272.997742 
	C351.379333,271.998383 341.689667,270.998566 332.000000,269.998779 
	C341.909912,266.979065 351.950104,264.317200 361.671234,260.778809 
	C366.096039,259.168213 369.890045,255.824554 373.980011,252.936157 
	C382.172180,252.813751 390.354523,253.022171 398.782532,253.572784 
z"/>
<path fill="#FB3A5E" opacity="1.000000" stroke="none" 
	d="
M473.922119,298.572815 
	C462.686340,304.217194 451.441559,309.849762 439.889771,314.760010 
	C434.163727,317.194000 427.872986,318.299469 421.008331,320.060913 
	C415.785156,320.410980 411.391357,320.706116 407.070709,320.645966 
	C408.113739,319.802979 409.136505,319.397491 410.044342,318.813416 
	C414.046692,316.238251 418.015961,313.611633 421.997192,311.003662 
	C429.542267,308.059052 437.263123,305.490112 444.583557,302.065369 
	C452.089172,298.553986 459.203033,294.205231 466.813354,290.077332 
	C469.354431,292.708832 471.570465,295.485962 473.922119,298.572815 
z"/>
<path fill="#EA50A2" opacity="1.000000" stroke="none" 
	d="
M488.286804,326.516235 
	C462.398224,337.963287 436.175323,348.410461 408.434174,354.208282 
	C397.468872,356.500000 386.258850,357.826141 375.093445,358.891907 
	C365.700714,359.788452 356.177704,360.323486 346.772461,359.842926 
	C333.757812,359.177917 320.799469,357.410431 307.409668,355.808105 
	C307.002167,355.333710 307.001953,355.166229 307.462067,354.999023 
	C317.468597,355.666168 327.032867,357.067749 336.556824,356.833160 
	C352.051727,356.451538 367.520325,355.000000 383.437927,354.000000 
	C389.281342,353.332764 394.816223,353.192108 400.068359,351.901123 
	C416.923859,347.758026 433.866638,343.798187 450.403320,338.586029 
	C462.847351,334.663818 474.718811,328.924896 486.845154,323.994690 
	C487.302948,324.728088 487.760773,325.461487 488.286804,326.516235 
z"/>
<path fill="#F04890" opacity="1.000000" stroke="none" 
	d="
M482.783691,312.978699 
	C483.603729,314.718811 484.423767,316.458923 484.950256,318.599487 
	C480.181183,321.126740 475.829987,323.584717 471.207458,325.319763 
	C455.881256,331.072449 440.645630,337.180267 425.011810,341.964020 
	C412.279266,345.860016 399.025177,348.051483 385.717987,350.718872 
	C378.953033,350.623932 372.472412,350.808929 366.084076,350.615356 
	C367.333527,349.822906 368.462341,349.280731 369.652893,349.017670 
	C374.423309,347.963531 379.212860,346.995941 384.390686,345.945984 
	C392.234283,344.413788 399.715759,343.080261 407.124603,341.422150 
	C428.868134,336.555939 449.709869,328.913818 470.172516,320.253693 
	C474.100098,318.591461 477.405762,315.459839 481.296021,313.001831 
	C481.990387,312.991302 482.387024,312.985016 482.783691,312.978699 
z"/>
<path fill="#7385FB" opacity="1.000000" stroke="none" 
	d="
M355.438263,468.830627 
	C355.936493,467.655304 356.886688,466.549744 357.864502,465.469116 
	C360.210968,462.875916 362.570404,460.294464 365.331116,457.310852 
	C370.491760,454.608948 375.245880,452.304443 380.449097,450.000732 
	C385.598816,449.335114 390.299408,448.668762 395.213501,448.279785 
	C400.383789,451.029449 399.109802,455.037720 397.852295,459.303467 
	C394.795746,462.653534 391.889313,465.705017 388.982849,468.756500 
	C377.956177,468.808228 366.929474,468.859955 355.438263,468.830627 
z"/>
<path fill="#9492F8" opacity="1.000000" stroke="none" 
	d="
M484.070831,405.028473 
	C477.449890,421.579895 466.474609,434.766449 452.307495,445.418060 
	C452.346191,442.847504 452.411041,440.493835 453.108215,438.345337 
	C454.516479,434.005310 454.449860,429.931824 452.036133,425.659119 
	C454.252136,422.946075 456.107452,420.113464 458.686432,418.323425 
	C462.115631,415.943176 463.761841,413.001678 464.352661,408.973938 
	C470.776550,405.673920 477.230072,404.390350 484.070831,405.028473 
z"/>
<path fill="#FD4F93" opacity="1.000000" stroke="none" 
	d="
M212.997864,310.002441 
	C209.734146,308.178375 206.203079,306.708038 203.248459,304.474976 
	C176.690231,284.402649 154.787506,260.193573 138.454742,231.064575 
	C137.742813,229.794876 136.151947,229.018036 134.617950,228.000229 
	C134.212112,223.625458 134.158813,219.262070 134.538971,214.452393 
	C136.149551,215.007462 137.621048,215.814804 138.437607,217.053802 
	C139.796387,219.115509 140.632721,221.512848 141.869019,223.665497 
	C146.540710,231.799942 151.284821,239.892807 156.047638,248.318436 
	C156.728363,249.090286 157.363266,249.544922 158.237213,250.173187 
	C158.651443,250.898270 158.826645,251.449753 159.047607,252.318512 
	C159.728500,253.090347 160.363632,253.544876 160.999390,254.249695 
	C161.000610,254.666870 161.001221,254.833740 161.040985,255.348999 
	C172.412903,272.535461 186.266190,287.040802 201.860107,299.963226 
	C205.705368,303.149719 209.295197,306.644501 213.001221,309.998779 
	C213.000000,310.000000 212.997864,310.002441 212.997864,310.002441 
z"/>
<path fill="#FF4253" opacity="1.000000" stroke="none" 
	d="
M142.932190,168.867661 
	C144.770355,165.044739 146.608521,161.221817 149.008759,157.427399 
	C150.074982,158.842316 150.669067,160.203308 151.069107,161.619141 
	C154.400665,173.409882 157.696472,185.210739 161.010681,197.393661 
	C166.347076,209.354111 171.677994,220.928467 177.001953,232.506012 
	C177.687103,233.995987 178.336090,235.502594 178.658234,236.962830 
	C176.542267,235.949402 174.769913,234.974625 172.656891,233.942734 
	C171.918243,233.607849 171.376114,233.418640 171.143097,233.039490 
	C161.673126,217.629959 153.630066,201.571960 148.489182,184.137848 
	C146.960129,178.952454 144.802063,173.952560 142.932190,168.867661 
z"/>
<path fill="#FE4B83" opacity="1.000000" stroke="none" 
	d="
M161.001831,255.000610 
	C161.001221,254.833740 161.000610,254.666870 160.953476,253.932404 
	C160.271912,252.910278 159.636871,252.455750 159.001831,252.001221 
	C158.826645,251.449753 158.651443,250.898270 158.191498,249.855881 
	C157.271759,248.910385 156.636795,248.455811 156.001831,248.001221 
	C151.284821,239.892807 146.540710,231.799942 141.869019,223.665497 
	C140.632721,221.512848 139.796387,219.115509 138.437607,217.053802 
	C137.621048,215.814804 136.149551,215.007462 134.618896,213.992920 
	C134.516708,207.933121 134.768021,201.886490 135.430328,195.469574 
	C138.229599,200.066696 140.617844,205.034119 143.044830,210.361160 
	C153.190277,233.470642 166.144638,254.364700 183.113892,272.700134 
	C186.357849,276.205231 189.051712,280.219452 191.634766,283.994080 
	C190.493118,283.761047 189.477249,283.770966 188.975616,283.268005 
	C183.262924,277.540222 177.645050,271.718109 171.967590,265.954895 
	C168.341873,262.274384 164.659058,258.650085 161.001831,255.000610 
z"/>
<path fill="#F5427D" opacity="1.000000" stroke="none" 
	d="
M482.712036,312.649841 
	C482.387024,312.985016 481.990387,312.991302 480.935181,313.040710 
	C457.666107,323.539246 434.392059,332.051575 409.807770,336.512573 
	C399.926514,338.305542 389.940674,339.522125 380.001831,340.666565 
	C380.000824,339.886017 380.000397,339.439972 380.000000,338.993896 
	C384.898956,337.864136 389.762848,336.542908 394.702942,335.637482 
	C416.999939,331.550842 438.290436,324.337280 458.877686,314.997589 
	C465.331787,312.069611 471.528107,308.573395 478.006897,305.003937 
	C479.661011,307.220734 481.150696,309.770844 482.712036,312.649841 
z"/>
<path fill="#FF411C" opacity="1.000000" stroke="none" 
	d="
M428.044342,261.859863 
	C431.490662,263.500641 434.936981,265.141449 438.645874,267.291260 
	C437.431061,269.297607 436.190521,271.198792 434.437866,272.226746 
	C423.021393,278.922699 411.493713,285.429138 399.548309,291.998230 
	C395.885284,292.300659 392.677551,292.821869 389.467194,292.838196 
	C386.646698,292.852570 383.823334,292.301392 381.205872,291.730835 
	C385.606995,288.639832 389.803497,285.817963 394.368317,282.952942 
	C404.511200,277.715881 414.358795,272.651337 423.994690,267.211792 
	C425.782043,266.202789 426.716339,263.682617 428.044342,261.859863 
z"/>
<path fill="#FF3F41" opacity="1.000000" stroke="none" 
	d="
M161.003052,197.008545 
	C157.696472,185.210739 154.400665,173.409882 151.069107,161.619141 
	C150.669067,160.203308 150.074982,158.842316 149.287170,157.226379 
	C151.780533,152.727554 154.557556,148.458252 157.648010,144.045044 
	C160.296097,156.509720 162.564362,169.131149 165.005066,181.719131 
	C165.756424,185.594330 166.978806,189.378235 168.042725,193.984497 
	C170.400558,201.511459 172.701202,208.257858 174.663361,214.948822 
	C171.331024,210.795044 168.354172,206.684128 165.335754,202.603989 
	C163.933151,200.708038 162.449799,198.871826 161.003052,197.008545 
z"/>
<path fill="#FF411C" opacity="1.000000" stroke="none" 
	d="
M190.652924,116.068481 
	C189.986603,122.084663 188.519058,128.214905 188.124146,134.413483 
	C187.410965,145.608337 187.338837,156.844040 186.987610,168.946411 
	C186.315491,173.553467 185.654739,177.276779 184.716370,180.780243 
	C183.555206,178.281281 182.716522,175.983536 181.777008,173.727768 
	C180.558090,170.801132 179.258896,167.907913 177.995087,164.531616 
	C178.296585,150.621552 178.597260,137.180161 178.897949,123.738762 
	C182.710358,121.230293 186.522766,118.721825 190.652924,116.068481 
z"/>
<path fill="#FF4870" opacity="1.000000" stroke="none" 
	d="
M143.006104,210.001541 
	C140.617844,205.034119 138.229599,200.066696 135.499634,195.042542 
	C136.179047,190.119278 137.200150,185.252747 138.849731,180.317612 
	C140.273987,181.484283 141.312119,182.626831 141.825851,183.969955 
	C144.963394,192.172897 147.318283,200.750702 151.201172,208.574722 
	C156.544876,219.342224 163.014053,229.551147 169.046982,240.317001 
	C169.728409,241.090454 170.363922,241.546310 170.999451,242.251312 
	C170.999466,242.500458 171.000610,242.998779 171.041031,243.350189 
	C172.388245,246.467331 173.695038,249.233047 175.039856,252.351456 
	C175.718399,254.469833 176.358887,256.235535 176.664062,257.946594 
	C167.967285,246.097565 159.570648,234.327789 151.263596,222.495163 
	C148.396423,218.411118 145.752182,214.170593 143.006104,210.001541 
z"/>
<path fill="#9E7DF3" opacity="1.000000" stroke="none" 
	d="
M484.329285,404.795593 
	C477.230072,404.390350 470.776550,405.673920 463.915466,408.969727 
	C458.071198,408.682983 453.031464,408.354187 447.991699,408.025391 
	C446.452454,406.525970 444.913177,405.026520 443.184998,402.933289 
	C442.996552,401.892548 442.997040,401.445679 443.327637,400.853760 
	C447.439667,399.471680 451.221680,398.234619 455.417908,396.940643 
	C459.434326,396.589142 463.078644,395.804962 466.628998,396.111053 
	C472.426208,396.610718 477.314331,394.653961 482.145630,391.945862 
	C484.682007,390.524078 487.337219,389.314362 489.938782,388.008881 
	C488.155121,393.526855 486.371460,399.044800 484.329285,404.795593 
z"/>
<path fill="#FF4561" opacity="1.000000" stroke="none" 
	d="
M169.001053,239.999390 
	C163.014053,229.551147 156.544876,219.342224 151.201172,208.574722 
	C147.318283,200.750702 144.963394,192.172897 141.825851,183.969955 
	C141.312119,182.626831 140.273987,181.484283 139.152374,180.084198 
	C139.996552,176.381393 141.166580,172.843399 142.634399,169.086548 
	C144.802063,173.952560 146.960129,178.952454 148.489182,184.137848 
	C153.630066,201.571960 161.673126,217.629959 171.143097,233.039490 
	C171.376114,233.418640 171.918243,233.607849 172.663803,234.316681 
	C175.007401,238.832230 177.003387,242.916733 178.634918,246.995575 
	C175.847168,245.659531 173.423889,244.329163 171.000610,242.998779 
	C171.000610,242.998779 170.999466,242.500458 170.953384,241.933609 
	C170.271896,240.910965 169.636475,240.455170 169.001053,239.999390 
z"/>
<path fill="#AA7CEE" opacity="1.000000" stroke="none" 
	d="
M490.009827,387.622284 
	C487.337219,389.314362 484.682007,390.524078 482.145630,391.945862 
	C477.314331,394.653961 472.426208,396.610718 466.628998,396.111053 
	C463.078644,395.804962 459.434326,396.589142 455.423157,396.565857 
	C455.674042,394.163666 456.333984,392.079407 457.361694,389.952271 
	C459.999390,389.031860 462.207550,387.897552 464.552887,387.334106 
	C468.552094,386.373260 470.386444,384.085114 470.307251,379.859802 
	C474.082581,377.807220 477.538422,375.896057 481.401154,373.979553 
	C485.471558,373.315033 489.135040,372.655823 492.798523,371.996613 
	C491.892639,377.076294 490.986755,382.156006 490.009827,387.622284 
z"/>
<path fill="#EC4B9C" opacity="1.000000" stroke="none" 
	d="
M386.002319,350.998779 
	C399.025177,348.051483 412.279266,345.860016 425.011810,341.964020 
	C440.645630,337.180267 455.881256,331.072449 471.207458,325.319763 
	C475.829987,323.584717 480.181183,321.126740 485.050110,318.950043 
	C485.952148,320.369446 486.460754,321.838745 486.907288,323.651367 
	C474.718811,328.924896 462.847351,334.663818 450.403320,338.586029 
	C433.866638,343.798187 416.923859,347.758026 400.068359,351.901123 
	C394.816223,353.192108 389.281342,353.332764 383.488342,353.676147 
	C384.067993,352.567810 385.035156,351.783264 386.002319,350.998779 
z"/>
<path fill="#FE4A10" opacity="1.000000" stroke="none" 
	d="
M427.882233,261.537720 
	C426.716339,263.682617 425.782043,266.202789 423.994690,267.211792 
	C414.358795,272.651337 404.511200,277.715881 394.099243,282.679962 
	C390.306976,281.631775 387.152100,280.813416 383.997223,279.995056 
	C386.686066,277.986298 389.446289,276.065460 392.050018,273.951843 
	C399.038849,268.278625 405.960724,262.522919 412.954468,256.465363 
	C417.906525,257.825684 422.813324,259.520599 427.882233,261.537720 
z"/>
<path fill="#ED60D6" opacity="1.000000" stroke="none" 
	d="
M161.997711,317.004883 
	C154.822830,311.330231 147.687866,305.603760 140.442474,300.020599 
	C138.811371,298.763702 136.794846,298.006958 134.606995,297.011963 
	C134.207581,291.972015 134.156891,286.940094 134.183899,281.445038 
	C135.688461,281.672791 137.428513,282.047333 138.494568,283.102692 
	C151.725540,296.200867 164.862381,309.394165 177.999237,322.587097 
	C178.439102,323.028839 178.623627,323.724915 178.607635,324.609924 
	C172.857956,322.279938 167.427841,319.642395 161.997711,317.004883 
z"/>
<path fill="#8A90F9" opacity="1.000000" stroke="none" 
	d="
M451.997559,426.003662 
	C454.449860,429.931824 454.516479,434.005310 453.108215,438.345337 
	C452.411041,440.493835 452.346191,442.847504 451.993591,445.533508 
	C443.254852,450.978424 434.517761,455.998138 425.401794,460.683350 
	C425.656403,459.081482 426.276001,457.806946 426.925812,456.548065 
	C429.945953,450.696747 432.974487,444.849762 436.148834,438.703796 
	C439.635162,435.001587 442.816925,431.419769 446.386810,428.279175 
	C447.817261,427.020752 450.101807,426.733154 451.997559,426.003662 
z"/>
<path fill="#7C80FB" opacity="1.000000" stroke="none" 
	d="
M153.999664,437.561035 
	C149.998840,434.994568 146.013260,431.971680 141.990509,428.999146 
	C139.681702,427.293152 137.312607,425.668823 134.624466,423.996704 
	C134.227371,416.960419 134.176468,409.935120 134.208435,402.445923 
	C137.317505,403.225769 140.343689,404.469482 143.729736,406.221558 
	C145.855835,409.784332 147.548874,412.884064 149.407593,415.881042 
	C151.528656,419.300964 153.797302,422.629395 156.001831,425.997559 
	C155.080276,427.415710 153.570297,428.758331 153.376205,430.269897 
	C153.090927,432.491882 153.745255,434.834534 153.999664,437.561035 
z"/>
<path fill="#FF3A24" opacity="1.000000" stroke="none" 
	d="
M400.002441,291.997559 
	C411.493713,285.429138 423.021393,278.922699 434.437866,272.226746 
	C436.190521,271.198792 437.431061,269.297607 438.952820,267.462585 
	C442.118744,269.032990 445.240234,270.941040 448.674194,273.004822 
	C443.991791,276.774292 439.041779,280.452118 433.992584,283.988251 
	C424.017853,290.973846 412.243408,293.044495 400.396606,295.590942 
	C400.001099,294.132263 400.001770,293.064911 400.002441,291.997559 
z"/>
<path fill="#8A90F9" opacity="1.000000" stroke="none" 
	d="
M134.187210,439.441132 
	C138.502441,442.489716 142.829117,445.897430 146.947205,449.540955 
	C151.241837,453.340668 155.423889,457.279114 159.479782,461.332397 
	C161.518280,463.369629 163.167557,465.796356 165.005463,468.391052 
	C159.989777,468.774658 154.961456,468.814209 149.461151,468.438477 
	C145.070755,463.761139 141.203629,459.449219 137.170456,455.298645 
	C136.652130,454.765259 135.271591,455.069702 134.290451,454.986023 
	C134.229294,449.958679 134.168137,444.931305 134.187210,439.441132 
z"/>
<path fill="#7F8BFA" opacity="1.000000" stroke="none" 
	d="
M436.000000,439.001221 
	C432.974487,444.849762 429.945953,450.696747 426.925812,456.548065 
	C426.276001,457.806946 425.656403,459.081482 425.028564,460.723877 
	C420.611969,462.681335 416.189667,464.263794 411.383850,465.410034 
	C411.313904,461.076813 411.119019,457.498260 406.059052,456.662872 
	C407.548950,454.995819 408.938477,453.609833 410.431824,452.346527 
	C414.932892,448.538757 419.474304,444.778656 424.418915,440.999878 
	C428.558563,440.333588 432.279266,439.667389 436.000000,439.001221 
z"/>
<path fill="#FF3A24" opacity="1.000000" stroke="none" 
	d="
M178.550171,123.814865 
	C178.597260,137.180161 178.296585,150.621552 177.725037,164.788452 
	C176.633530,169.676422 175.812927,173.838852 174.992325,178.001297 
	C173.327423,170.147324 171.353287,162.342621 170.091553,154.424408 
	C169.003769,147.597839 168.727295,140.641998 168.028900,133.322968 
	C171.377914,129.898758 174.790146,126.894859 178.550171,123.814865 
z"/>
<path fill="#7B8FFA" opacity="1.000000" stroke="none" 
	d="
M406.006104,457.000000 
	C411.119019,457.498260 411.313904,461.076813 411.000732,465.384766 
	C403.958008,466.832611 396.914856,467.869476 389.427277,468.831421 
	C391.889313,465.705017 394.795746,462.653534 398.233948,459.294983 
	C401.179169,458.325256 403.592621,457.662628 406.006104,457.000000 
z"/>
<path fill="#C566E7" opacity="1.000000" stroke="none" 
	d="
M492.863708,371.583649 
	C489.135040,372.655823 485.471558,373.315033 481.234497,373.661865 
	C478.107147,372.233185 475.553345,371.116852 472.999573,370.000549 
	C476.461121,368.248352 479.867096,366.372772 483.400787,364.780762 
	C486.546387,363.363556 489.833496,362.260406 493.424011,361.008423 
	C493.502899,364.389008 493.215881,367.779846 492.863708,371.583649 
z"/>
<path fill="#9492F8" opacity="1.000000" stroke="none" 
	d="
M134.208542,455.446716 
	C135.271591,455.069702 136.652130,454.765259 137.170456,455.298645 
	C141.203629,459.449219 145.070755,463.761139 149.000732,468.365204 
	C144.294434,468.707245 139.576584,468.707245 134.126633,468.707245 
	C134.126633,464.287323 134.126633,460.097382 134.208542,455.446716 
z"/>
<path fill="#FE5C0E" opacity="1.000000" stroke="none" 
	d="
M331.533203,269.999207 
	C341.689667,270.998566 351.379333,271.998383 361.533264,272.997894 
	C359.114166,274.788330 356.273651,276.654083 353.329651,278.338989 
	C351.801086,279.213837 350.089569,279.769043 347.819336,280.790588 
	C335.016663,283.798523 322.808350,283.186493 310.726471,280.957245 
	C279.850250,275.260254 252.743790,262.248993 231.317001,238.735123 
	C228.912048,236.095917 227.091537,232.924179 224.957184,229.633270 
	C220.610001,215.178497 216.305603,201.089859 212.001221,187.001221 
	C214.854477,192.062759 217.902298,197.025940 220.521362,202.205902 
	C226.352188,213.737930 233.281693,224.468369 242.699738,233.848190 
	C260.546417,252.380829 282.422577,262.783722 306.925964,267.841278 
	C314.786407,269.463715 323.009338,269.329926 331.533203,269.999207 
z"/>
<path fill="#7073FD" opacity="1.000000" stroke="none" 
	d="
M380.000000,450.000000 
	C375.245880,452.304443 370.491760,454.608948 365.369446,456.956726 
	C362.751373,456.999634 360.483643,457.182159 358.255066,456.964233 
	C351.855652,456.338531 345.487335,455.315002 339.077545,454.899170 
	C333.691040,454.549683 328.259949,454.959137 322.854889,454.807678 
	C314.922058,454.585388 306.976898,454.389069 299.070129,453.763153 
	C290.691650,453.099976 282.321533,452.158661 274.001984,450.961975 
	C259.318878,448.849915 244.671356,446.486786 230.019684,444.161102 
	C220.254196,442.611023 210.507324,440.943695 200.381470,438.790894 
	C201.340073,435.501282 202.669296,432.749603 204.429352,429.998535 
	C206.351105,430.088440 207.863724,430.045990 209.329666,430.287201 
	C226.944519,433.185394 244.464920,436.933777 262.184052,438.853210 
	C285.045288,441.329651 308.050720,442.584534 331.020874,443.896484 
	C341.647491,444.503387 352.337494,444.000000 363.409973,444.010986 
	C369.454651,445.363617 375.805481,444.763885 380.000000,450.000000 
z"/>
<path fill="#7878FC" opacity="1.000000" stroke="none" 
	d="
M203.998535,429.997894 
	C202.669296,432.749603 201.340073,435.501282 200.004501,438.624664 
	C195.551315,438.570038 191.104462,438.143768 186.328796,437.858124 
	C181.912140,437.027802 177.824295,436.056793 173.367615,435.043335 
	C168.515640,432.264465 164.051819,429.495392 159.531342,426.822144 
	C158.729507,426.347961 157.691910,426.272461 156.382507,426.005188 
	C153.797302,422.629395 151.528656,419.300964 149.407593,415.881042 
	C147.548874,412.884064 145.855835,409.784332 144.048798,406.364044 
	C147.012543,406.277344 150.191025,406.023529 152.988892,406.936340 
	C161.195892,409.613922 169.251572,412.755402 177.691071,416.239105 
	C178.336487,422.141602 183.131927,421.507690 186.358429,422.872864 
	C192.197968,425.343628 198.114273,427.632874 203.998535,429.997894 
z"/>
<path fill="#8770FB" opacity="1.000000" stroke="none" 
	d="
M154.056488,393.346741 
	C173.110641,398.413513 192.086929,404.381531 211.374664,409.067566 
	C229.342606,413.432983 247.582474,416.775391 265.809601,419.955078 
	C292.414642,424.596252 319.347382,424.638336 346.215118,423.847595 
	C362.726288,423.361633 379.203247,421.492554 395.676514,420.030304 
	C404.231476,419.270935 412.730499,417.880920 421.285583,417.123505 
	C424.188049,416.866516 427.184906,417.675781 430.524475,418.347717 
	C428.806580,420.368317 426.674500,422.004791 424.605774,423.717834 
	C421.711578,426.114502 418.864685,428.568207 415.564697,430.997192 
	C412.087830,431.327576 409.043854,431.658295 405.999847,431.989014 
	C402.153168,430.659637 398.319458,428.242096 394.457489,428.196045 
	C380.429535,428.028778 366.393616,428.815369 352.357941,428.943481 
	C334.206604,429.109131 315.996063,429.895844 297.913574,428.769104 
	C273.333801,427.237488 248.831192,424.209991 224.868027,418.107727 
	C208.186172,413.859650 191.423080,409.805328 175.025681,404.622284 
	C167.641098,402.288086 161.060120,397.411560 154.056488,393.346741 
z"/>
<path fill="#7872FD" opacity="1.000000" stroke="none" 
	d="
M204.429352,429.998535 
	C198.114273,427.632874 192.197968,425.343628 186.358429,422.872864 
	C183.131927,421.507690 178.336487,422.141602 178.008698,416.381531 
	C205.552444,421.640259 232.997726,427.891968 260.697388,432.668182 
	C274.988708,435.132446 289.718079,435.334839 304.275116,435.909119 
	C322.381226,436.623474 340.513184,436.710785 358.635437,436.963440 
	C362.564484,437.018219 366.499756,436.625153 370.558533,437.019165 
	C368.122894,439.733337 365.560822,441.866669 362.998779,444.000000 
	C352.337494,444.000000 341.647491,444.503387 331.020874,443.896484 
	C308.050720,442.584534 285.045288,441.329651 262.184052,438.853210 
	C244.464920,436.933777 226.944519,433.185394 209.329666,430.287201 
	C207.863724,430.045990 206.351105,430.088440 204.429352,429.998535 
z"/>
<path fill="#7C80FB" opacity="1.000000" stroke="none" 
	d="
M405.887390,432.206848 
	C409.043854,431.658295 412.087830,431.327576 415.915588,431.038666 
	C420.884735,433.097656 423.620514,436.181732 424.000000,441.000000 
	C419.474304,444.778656 414.932892,448.538757 410.431824,452.346527 
	C408.938477,453.609833 407.548950,454.995819 406.059052,456.662903 
	C403.592621,457.662628 401.179169,458.325256 398.384064,458.996399 
	C399.109802,455.037720 400.383789,451.029449 395.369141,447.980927 
	C400.605591,443.993134 403.868744,439.215546 404.997437,433.002441 
	C405.315247,432.888763 405.574432,432.696167 405.887390,432.206848 
z"/>
<path fill="#7878FC" opacity="1.000000" stroke="none" 
	d="
M404.559723,433.001587 
	C403.868744,439.215546 400.605591,443.993134 395.155670,447.703583 
	C390.299408,448.668762 385.598816,449.335114 380.449097,450.000732 
	C375.805481,444.763885 369.454651,445.363617 363.409973,444.010986 
	C365.560822,441.866669 368.122894,439.733337 370.842468,437.299377 
	C380.252411,435.859772 389.504364,434.716705 398.757690,433.585327 
	C400.542938,433.367065 402.333771,433.194427 404.559723,433.001587 
z"/>
<path fill="#986DF5" opacity="1.000000" stroke="none" 
	d="
M442.997559,400.998779 
	C442.997040,401.445679 442.996552,401.892548 442.991516,402.674805 
	C426.402771,406.924469 409.891388,411.195984 393.202850,414.598846 
	C385.149475,416.240967 376.775330,416.665741 368.524567,416.912872 
	C348.761169,417.504883 328.983093,417.978333 309.214447,417.867828 
	C299.328339,417.812561 289.449951,416.373322 279.284637,415.279419 
	C284.776398,412.167908 290.781311,412.183563 296.703583,414.130829 
	C300.786591,415.473328 304.085388,415.053925 307.365662,411.354858 
	C309.571289,411.001984 311.285645,411.002808 313.034058,411.290833 
	C313.711853,411.719208 314.355591,411.860413 315.468018,412.000763 
	C330.500519,411.664856 345.075714,411.575256 359.623718,410.900299 
	C367.996552,410.511810 376.333191,409.241302 384.672180,408.250580 
	C396.121185,406.890320 407.556976,405.418915 419.418335,403.985046 
	C427.558014,402.982880 435.277771,401.990814 442.997559,400.998779 
z"/>
<path fill="#8781FA" opacity="1.000000" stroke="none" 
	d="
M424.418915,440.999878 
	C423.620514,436.181732 420.884735,433.097656 416.348450,431.039001 
	C418.864685,428.568207 421.711578,426.114502 424.605774,423.717834 
	C426.674500,422.004791 428.806580,420.368317 430.948059,418.350006 
	C436.547272,414.876862 442.108795,411.751343 447.830994,408.325623 
	C453.031464,408.354187 458.071198,408.682983 463.548157,409.015991 
	C463.761841,413.001678 462.115631,415.943176 458.686432,418.323425 
	C456.107452,420.113464 454.252136,422.946075 452.036133,425.659149 
	C450.101807,426.733154 447.817261,427.020752 446.386810,428.279175 
	C442.816925,431.419769 439.635162,435.001587 436.148804,438.703766 
	C432.279266,439.667389 428.558563,440.333588 424.418915,440.999878 
z"/>
<path fill="#986DF5" opacity="1.000000" stroke="none" 
	d="
M271.269653,414.273987 
	C272.948853,414.092010 274.896484,414.185211 276.921997,414.638062 
	C275.179291,414.848175 273.358673,414.698669 271.269653,414.273987 
z"/>
<path fill="#FE550E" opacity="1.000000" stroke="none" 
	d="
M212.000900,186.565674 
	C216.305603,201.089859 220.610001,215.178497 224.612915,229.592697 
	C218.546326,222.621704 212.808868,215.302979 206.993027,208.047089 
	C205.814484,206.576736 204.339920,205.343674 202.993591,203.614929 
	C201.989639,199.818680 200.993896,196.408722 199.998169,192.998779 
	C199.332245,182.644882 198.666321,172.290970 198.001114,161.468414 
	C200.361694,163.050400 202.679657,165.152267 205.098328,167.131058 
	C206.395920,168.192673 207.866592,169.042709 209.628357,169.994110 
	C210.665222,175.376709 211.332901,180.753418 212.000900,186.565674 
z"/>
<path fill="#BB64E1" opacity="1.000000" stroke="none" 
	d="
M472.617340,370.007568 
	C475.553345,371.116852 478.107147,372.233185 480.827576,373.667206 
	C477.538422,375.896057 474.082581,377.807220 469.870178,379.858398 
	C467.289429,380.091797 465.425659,379.975616 463.647308,380.311554 
	C448.545502,383.164368 433.446503,386.035278 418.371155,389.024292 
	C392.818359,394.090668 366.966614,396.520538 340.901459,397.606903 
	C339.800964,396.811279 338.816040,396.104767 337.797028,396.051666 
	C329.709412,395.630066 321.604706,395.485901 313.528137,394.926392 
	C309.990845,394.681335 306.506927,393.665710 303.251221,392.733276 
	C305.336853,391.977692 307.170044,391.488831 309.003235,391.000000 
	C324.088898,391.333344 339.204895,392.407532 354.251770,391.792206 
	C369.386505,391.173340 384.618774,389.790741 399.509064,387.091797 
	C420.940216,383.207275 442.110138,377.871033 463.366180,373.042694 
	C466.395477,372.354614 469.282349,371.039520 472.617340,370.007568 
z"/>
<path fill="#C566E7" opacity="1.000000" stroke="none" 
	d="
M308.715942,390.719421 
	C307.170044,391.488831 305.336853,391.977692 302.828766,392.731476 
	C296.083344,392.315094 289.941864,392.010345 283.955566,390.882172 
	C265.606079,387.424042 247.316147,383.649963 229.003052,379.998779 
	C226.552811,378.588104 224.192444,376.983307 221.636841,375.800232 
	C210.393784,370.595490 199.088226,365.525909 187.830368,360.352814 
	C187.148117,360.039307 186.682587,359.254150 186.058044,358.345428 
	C197.401505,361.661896 208.803162,365.321381 220.602722,368.989197 
	C228.105789,371.079529 235.200912,373.197021 242.324020,375.215729 
	C243.886307,375.658478 245.548233,375.749542 247.584900,376.005554 
	C249.395386,376.963287 250.661331,378.405884 252.194794,378.795410 
	C264.216003,381.849091 276.242218,384.915405 288.363586,387.529419 
	C294.954590,388.950745 301.734161,389.497559 308.715942,390.719421 
z"/>
<path fill="#D162D7" opacity="1.000000" stroke="none" 
	d="
M234.061920,364.350586 
	C234.164093,364.001740 234.332184,363.999847 235.177979,363.996765 
	C238.453583,364.450073 241.092194,364.743439 243.642227,365.387451 
	C253.441513,367.862366 263.212402,370.449707 273.388306,373.005157 
	C290.753418,378.521759 308.429688,379.415009 326.000000,381.001221 
	C327.370483,381.847534 328.683563,382.813232 330.127228,383.507233 
	C331.632385,384.230804 333.263428,384.692444 334.920349,385.634277 
	C313.193176,386.107758 291.606934,384.101898 270.305420,379.293915 
	C268.876434,378.971375 267.348145,379.088959 265.435455,379.000916 
	C261.762573,377.343994 258.576141,375.565308 255.266388,374.057343 
	C248.254318,370.862549 241.177872,367.808990 234.061920,364.350586 
z"/>
<path fill="#B167E8" opacity="1.000000" stroke="none" 
	d="
M341.001221,397.998779 
	C366.966614,396.520538 392.818359,394.090668 418.371155,389.024292 
	C433.446503,386.035278 448.545502,383.164368 463.647308,380.311554 
	C465.425659,379.975616 467.289429,380.091797 469.550690,379.999817 
	C470.386444,384.085114 468.552094,386.373260 464.552887,387.334106 
	C462.207550,387.897552 459.999390,389.031860 456.928650,389.952698 
	C448.142944,391.143921 440.153900,392.263245 432.174225,393.445709 
	C415.235321,395.955750 398.296600,398.467773 381.367859,401.045044 
	C375.563538,401.928680 369.789215,403.009338 363.540588,403.999390 
	C356.628815,404.309692 350.166077,405.020630 343.729248,404.834717 
	C334.809296,404.577087 325.908813,403.645294 317.000000,403.002136 
	C312.517670,402.185913 308.035309,401.369690 303.579132,399.988312 
	C316.070587,398.948364 328.535919,398.473572 341.001221,397.998779 
z"/>
<path fill="#A46AF1" opacity="1.000000" stroke="none" 
	d="
M316.697754,403.289124 
	C325.908813,403.645294 334.809296,404.577087 343.729248,404.834717 
	C350.166077,405.020630 356.628815,404.309692 363.836914,404.284302 
	C367.715698,404.653351 370.852112,404.971313 373.957062,404.779846 
	C387.682098,403.933472 401.394745,402.882385 415.122925,402.098663 
	C416.374603,402.027191 417.704742,403.330322 418.998444,403.995117 
	C407.556976,405.418915 396.121185,406.890320 384.672180,408.250580 
	C376.333191,409.241302 367.996552,410.511810 359.623718,410.900299 
	C345.075714,411.575256 330.500519,411.664856 315.295288,411.761414 
	C314.102539,411.349823 313.551270,411.176727 313.000000,411.003662 
	C311.285645,411.002808 309.571289,411.001984 307.428467,411.002380 
	C304.251190,410.366943 301.502380,409.730194 298.376770,409.047333 
	C292.027405,407.335358 286.048187,405.692474 280.091034,403.973206 
	C279.382233,403.768616 278.793884,403.146851 278.074219,402.360474 
	C289.166321,402.668304 300.332306,403.362793 311.503113,403.968262 
	C313.122070,404.056030 314.764130,403.717377 316.697754,403.289124 
z"/>
<path fill="#BA67EA" opacity="1.000000" stroke="none" 
	d="
M340.901459,397.606903 
	C328.535919,398.473572 316.070587,398.948364 303.302612,399.709717 
	C302.556305,399.996704 302.112701,399.997101 301.301239,399.709808 
	C300.288940,399.280640 299.644470,399.139099 299.000000,398.997559 
	C287.910400,397.337402 276.732910,396.112762 265.755585,393.896576 
	C254.425018,391.609070 243.242310,388.527954 232.084793,385.466492 
	C224.785034,383.463562 217.645203,380.877747 210.217468,378.276062 
	C214.434906,378.417206 218.871201,378.810272 223.300995,379.266510 
	C224.925552,379.433838 226.534744,379.750671 228.576996,379.999023 
	C247.316147,383.649963 265.606079,387.424042 283.955566,390.882172 
	C289.941864,392.010345 296.083344,392.315094 302.576324,392.998199 
	C306.506927,393.665710 309.990845,394.681335 313.528137,394.926392 
	C321.604706,395.485901 329.709412,395.630066 337.797028,396.051666 
	C338.816040,396.104767 339.800964,396.811279 340.901459,397.606903 
z"/>
<path fill="#B167E8" opacity="1.000000" stroke="none" 
	d="
M299.173248,399.237213 
	C299.644470,399.139099 300.288940,399.280640 300.968536,399.709320 
	C300.451263,399.823273 299.898895,399.650055 299.173248,399.237213 
z"/>
<path fill="#E859B5" opacity="1.000000" stroke="none" 
	d="
M352.537598,365.002350 
	C351.374939,365.669098 349.756378,366.884277 348.118591,366.910797 
	C337.416779,367.084106 326.710754,366.980408 316.006256,367.019135 
	C314.203644,367.025665 312.401978,367.284119 309.877472,367.712372 
	C301.408508,366.613586 293.614441,365.447876 285.928741,363.782043 
	C278.229889,362.113373 270.639282,359.945435 262.940887,357.649536 
	C261.106140,356.206573 259.425018,354.904083 257.540283,354.051910 
	C251.222244,351.195312 244.778961,348.611053 238.508530,345.657410 
	C237.079651,344.984375 236.152161,343.246918 234.993896,341.999359 
	C243.403046,344.631378 251.812195,347.263397 260.610657,349.946472 
	C268.254089,352.134827 275.441193,354.543182 282.775604,356.355347 
	C300.318726,360.689819 318.101837,363.506653 336.212128,364.029510 
	C341.503937,364.182281 346.786163,364.667938 352.537598,365.002350 
z"/>
<path fill="#F357A4" opacity="1.000000" stroke="none" 
	d="
M307.001709,354.998779 
	C307.001953,355.166229 307.002167,355.333710 307.003601,355.752411 
	C294.078827,353.403198 281.138611,350.870026 268.235901,348.158417 
	C264.684021,347.411957 261.244049,346.132935 257.373322,345.053406 
	C253.883881,344.020844 250.501816,343.521118 247.709045,341.964294 
	C232.372208,333.414551 217.177368,324.609955 201.950775,315.863220 
	C201.569244,315.644104 201.384201,315.082916 201.050919,314.343689 
	C201.772339,313.672302 202.550339,313.338531 203.666016,313.001160 
	C210.218903,316.370422 216.354462,319.901459 222.667053,323.081024 
	C233.600128,328.587769 243.807037,335.763153 256.668518,338.344574 
	C262.844940,341.116791 268.410492,343.995911 274.300415,345.837524 
	C285.099854,349.214264 296.090668,351.978943 307.001709,354.998779 
z"/>
<path fill="#FF4E4A" opacity="1.000000" stroke="none" 
	d="
M161.010681,197.393661 
	C162.449799,198.871826 163.933151,200.708038 165.335754,202.603989 
	C168.354172,206.684128 171.331024,210.795044 174.702820,215.304169 
	C179.388794,222.809509 183.696838,229.904007 188.042908,237.347565 
	C195.653900,250.669983 205.371719,262.224548 216.847366,271.452850 
	C229.261276,281.435608 243.134171,289.934906 257.268585,297.375580 
	C283.323212,311.091339 311.368652,317.799072 340.999084,317.002441 
	C342.720612,317.334717 344.436035,317.915680 346.164642,317.957764 
	C355.572693,318.187073 364.983948,318.283508 374.436859,318.986115 
	C370.610901,320.364716 366.718567,321.089722 362.888794,322.061340 
	C361.828339,322.330414 360.953888,323.332458 359.590820,323.988403 
	C355.608368,323.985352 352.010895,324.229156 348.453278,323.955475 
	C336.414551,323.029266 324.277252,322.627563 312.383179,320.734222 
	C286.949371,316.685699 262.817169,308.625824 240.552948,295.315308 
	C222.442444,284.488068 206.576797,271.131866 193.231674,254.797485 
	C188.426529,248.916031 183.741623,242.936340 179.001831,237.001495 
	C178.336090,235.502594 177.687103,233.995987 177.001953,232.506012 
	C171.677994,220.928467 166.347076,209.354111 161.010681,197.393661 
z"/>
<path fill="#FF4E3E" opacity="1.000000" stroke="none" 
	d="
M341.262390,316.730164 
	C311.368652,317.799072 283.323212,311.091339 257.268585,297.375580 
	C243.134171,289.934906 229.261276,281.435608 216.847366,271.452850 
	C205.371719,262.224548 195.653900,250.669983 188.386230,237.385345 
	C191.941666,240.029419 195.146500,243.036682 198.455826,245.924164 
	C201.240982,248.354309 204.147705,250.645081 207.041809,253.343384 
	C215.907730,261.377411 224.233200,269.750458 233.655289,276.619232 
	C257.355164,293.896545 284.027496,304.391052 313.278168,309.277100 
	C320.390228,310.373535 327.224792,311.196167 334.060638,312.008057 
	C339.706696,312.678650 345.354309,313.336487 351.001221,314.000000 
	C347.842712,314.819305 344.684204,315.638580 341.262390,316.730164 
z"/>
<path fill="#FE4934" opacity="1.000000" stroke="none" 
	d="
M351.412842,313.943726 
	C345.354309,313.336487 339.706696,312.678650 334.060638,312.008057 
	C327.224792,311.196167 320.390228,310.373535 313.580231,308.989838 
	C318.066772,308.282776 322.543579,308.325653 326.985748,307.953857 
	C332.671783,307.477905 338.329865,306.667938 344.467377,306.001282 
	C356.956085,305.000824 368.977448,304.001007 380.998779,303.001221 
	C380.999298,304.714905 380.999817,306.428619 381.000793,308.570557 
	C373.528625,310.332947 366.060089,311.690430 358.580963,312.986938 
	C356.343964,313.374725 354.077423,313.592072 351.412842,313.943726 
z"/>
<path fill="#FF4253" opacity="1.000000" stroke="none" 
	d="
M359.994080,323.998169 
	C360.953888,323.332458 361.828339,322.330414 362.888794,322.061340 
	C366.718567,321.089722 370.610901,320.364716 374.738647,319.273651 
	C387.510376,317.003876 400.028168,315.038452 412.531830,312.986786 
	C415.451996,312.507629 418.324097,311.735657 421.607727,311.051025 
	C418.015961,313.611633 414.046692,316.238251 410.044342,318.813416 
	C409.136505,319.397491 408.113739,319.802979 406.630005,320.645813 
	C393.410797,322.668091 380.705444,324.335236 367.726196,325.726868 
	C364.966248,324.966919 362.480164,324.482544 359.994080,323.998169 
z"/>
<path fill="#EC5CBF" opacity="1.000000" stroke="none" 
	d="
M234.633194,341.954102 
	C236.152161,343.246918 237.079651,344.984375 238.508530,345.657410 
	C244.778961,348.611053 251.222244,351.195312 257.540283,354.051910 
	C259.425018,354.904083 261.106140,356.206573 262.555267,357.601929 
	C260.469208,357.427765 258.689728,357.014252 256.950775,356.470978 
	C247.960251,353.662323 238.980087,350.820496 229.996323,347.990234 
	C220.625580,342.473541 211.013626,337.322601 201.947571,331.343903 
	C191.540085,324.480591 181.270737,317.272064 174.038879,306.345825 
	C179.470657,309.644073 184.859085,313.417358 190.428024,316.902191 
	C201.364197,323.745514 212.336411,330.536987 223.434555,337.112183 
	C226.809769,339.111816 230.646912,340.331787 234.633194,341.954102 
z"/>
<path fill="#E05DC3" opacity="1.000000" stroke="none" 
	d="
M229.887024,348.248962 
	C238.980087,350.820496 247.960251,353.662323 256.950775,356.470978 
	C258.689728,357.014252 260.469208,357.427765 262.615601,357.948730 
	C270.639282,359.945435 278.229889,362.113373 285.928741,363.782043 
	C293.614441,365.447876 301.408508,366.613586 309.577637,367.998047 
	C315.277649,368.980499 320.522369,370.237732 325.841400,370.871887 
	C331.555542,371.553223 337.339386,371.649414 343.547028,372.001953 
	C342.724854,372.668304 341.469482,373.855499 340.168457,373.907837 
	C334.764923,374.125214 329.347626,374.000214 323.000092,374.001038 
	C305.746582,374.359009 289.848022,371.353790 273.649292,367.850525 
	C259.969299,362.845032 246.615189,358.037964 233.318878,353.076050 
	C231.715775,352.477844 230.425369,351.041687 228.990036,349.993896 
	C229.252609,349.498505 229.515167,349.003113 229.887024,348.248962 
z"/>
<path fill="#D65ECC" opacity="1.000000" stroke="none" 
	d="
M273.992676,368.002136 
	C289.848022,371.353790 305.746582,374.359009 322.531403,374.001862 
	C326.746185,374.999664 330.492554,376.838379 334.242859,376.846405 
	C349.327637,376.878662 364.413177,376.321289 379.499603,376.045013 
	C381.799652,376.002899 384.105774,376.293427 386.703461,376.713837 
	C383.157593,377.658295 379.337677,378.711670 375.473602,378.911346 
	C359.302063,379.747040 343.117249,380.326691 326.468658,381.000671 
	C308.429688,379.415009 290.753418,378.521759 273.431610,372.641479 
	C273.384583,370.845886 273.688629,369.424011 273.992676,368.002136 
z"/>
<path fill="#D65ECC" opacity="1.000000" stroke="none" 
	d="
M392.793640,375.751556 
	C392.222900,376.329407 391.447968,376.661255 390.336548,376.994080 
	C390.863159,376.498596 391.726349,376.002075 392.793640,375.751556 
z"/>
<path fill="#D65ECC" opacity="1.000000" stroke="none" 
	d="
M397.822449,374.780243 
	C397.528992,375.315796 397.060120,375.632782 396.295654,375.972473 
	C396.549011,375.517334 397.098022,375.039520 397.822449,374.780243 
z"/>
<path fill="#E461D4" opacity="1.000000" stroke="none" 
	d="
M273.649292,367.850525 
	C273.688629,369.424011 273.384583,370.845886 273.037231,372.631439 
	C263.212402,370.449707 253.441513,367.862366 243.642227,365.387451 
	C241.092194,364.743439 238.453583,364.450073 235.430115,363.994141 
	C230.826202,361.579437 226.647354,359.167084 222.469589,356.752838 
	C205.146317,346.741943 187.724701,336.894501 170.584335,326.579651 
	C167.192947,324.538788 164.883072,320.700745 162.036087,317.348175 
	C167.427841,319.642395 172.857956,322.279938 178.648010,324.955414 
	C186.331604,329.118683 193.613632,333.320251 200.990753,337.347626 
	C208.240265,341.305328 215.547623,345.162933 222.921524,348.882202 
	C224.466202,349.661316 226.412170,349.644897 228.581635,349.994446 
	C230.425369,351.041687 231.715775,352.477844 233.318878,353.076050 
	C246.615189,358.037964 259.969299,362.845032 273.649292,367.850525 
z"/>
<path fill="#FD4D63" opacity="1.000000" stroke="none" 
	d="
M171.041031,243.350204 
	C173.423889,244.329163 175.847168,245.659531 178.675690,247.341797 
	C180.810638,249.623627 182.607651,251.497833 184.259674,253.492126 
	C201.164352,273.899261 220.748352,291.159180 244.258652,303.577606 
	C276.052155,320.371368 309.952881,329.061371 346.090393,329.382751 
	C352.121735,330.508728 358.061462,331.254364 364.001221,332.000000 
	C363.440033,332.507599 362.878815,333.015228 361.689697,333.761353 
	C346.310944,333.345520 331.482758,333.424927 316.825867,331.879669 
	C288.760193,328.920715 262.443970,319.920959 237.950607,305.930573 
	C215.984787,293.383911 196.616425,277.664917 180.966019,257.590881 
	C179.310577,255.467529 177.005508,253.850647 175.001831,251.998779 
	C173.695038,249.233047 172.388245,246.467331 171.041031,243.350204 
z"/>
<path fill="#FB4E6E" opacity="1.000000" stroke="none" 
	d="
M175.039856,252.351456 
	C177.005508,253.850647 179.310577,255.467529 180.966019,257.590881 
	C196.616425,277.664917 215.984787,293.383911 237.950607,305.930573 
	C262.443970,319.920959 288.760193,328.920715 316.825867,331.879669 
	C331.482758,333.424927 346.310944,333.345520 361.530273,334.000549 
	C363.306458,335.105743 364.614136,336.210266 365.494934,337.657196 
	C358.455505,338.330780 351.816132,339.199890 345.236450,338.871704 
	C334.359283,338.329102 323.469849,337.392700 312.676392,335.945190 
	C291.003723,333.038635 270.388885,326.321198 250.560196,317.231262 
	C232.960724,309.163208 216.883194,298.495239 202.529007,285.659973 
	C193.219040,277.335175 185.455719,267.280701 176.999390,258.001221 
	C176.358887,256.235535 175.718399,254.469833 175.039856,252.351456 
z"/>
<path fill="#FC4E77" opacity="1.000000" stroke="none" 
	d="
M176.664062,257.946594 
	C185.455719,267.280701 193.219040,277.335175 202.529007,285.659973 
	C216.883194,298.495239 232.960724,309.163208 250.560196,317.231262 
	C270.388885,326.321198 291.003723,333.038635 312.676392,335.945190 
	C323.469849,337.392700 334.359283,338.329102 345.236450,338.871704 
	C351.816132,339.199890 358.455505,338.330780 365.532196,337.999207 
	C368.039062,337.999908 370.081787,338.001068 372.462708,338.395111 
	C372.129120,339.183319 371.459625,339.918945 370.785217,339.923492 
	C358.050629,340.009705 345.315247,340.061859 332.580444,340.014648 
	C314.362274,339.947113 296.801727,336.025177 279.372009,331.086731 
	C248.303940,322.283997 221.083939,306.654419 196.882812,285.474152 
	C195.906433,284.619629 194.308578,284.475250 192.750046,283.999817 
	C192.333008,283.999359 192.166199,283.999054 191.999390,283.998779 
	C189.051712,280.219452 186.357849,276.205231 183.113892,272.700134 
	C166.144638,254.364700 153.190277,233.470642 143.044830,210.361160 
	C145.752182,214.170593 148.396423,218.411118 151.263596,222.495163 
	C159.570648,234.327789 167.967285,246.097565 176.664062,257.946594 
z"/>
<path fill="#F94F7E" opacity="1.000000" stroke="none" 
	d="
M193.000275,284.000000 
	C194.308578,284.475250 195.906433,284.619629 196.882812,285.474152 
	C221.083939,306.654419 248.303940,322.283997 279.372009,331.086731 
	C296.801727,336.025177 314.362274,339.947113 332.580444,340.014648 
	C345.315247,340.061859 358.050629,340.009705 370.785217,339.923492 
	C371.459625,339.918945 372.129120,339.183319 372.900299,338.397064 
	C375.067413,338.335693 377.135101,338.665253 379.601410,338.994354 
	C380.000397,339.439972 380.000824,339.886017 379.590179,340.677002 
	C370.900452,342.014771 362.611938,342.935516 354.352081,344.065918 
	C352.839874,344.272858 351.444427,345.332672 349.550262,345.998901 
	C337.418518,345.016083 325.695862,344.340485 314.052307,342.985107 
	C290.948730,340.295776 269.242981,332.854126 248.188538,323.150269 
	C229.504272,314.538849 212.973709,302.670349 196.872711,290.123627 
	C195.079910,288.726593 194.267395,286.071594 193.000275,284.000000 
z"/>
<path fill="#FF4561" opacity="1.000000" stroke="none" 
	d="
M364.396240,332.052551 
	C358.061462,331.254364 352.121735,330.508728 346.471497,329.214996 
	C348.868561,328.444702 350.981323,328.262756 353.082642,327.992096 
	C358.058014,327.351257 363.027924,326.668304 368.000061,326.002380 
	C380.705444,324.335236 393.410797,322.668091 406.556885,321.001099 
	C411.391357,320.706116 415.785156,320.410980 420.591766,320.061707 
	C419.178192,321.109558 417.442261,322.412506 415.511017,323.281555 
	C400.774200,329.912811 384.677979,330.100616 369.129211,332.873657 
	C367.772095,333.115662 366.241364,332.384308 364.396240,332.052551 
z"/>
<path fill="#FE4E19" opacity="1.000000" stroke="none" 
	d="
M199.651581,192.939209 
	C200.993896,196.408722 201.989639,199.818680 203.037827,203.987167 
	C204.515335,208.753906 205.757919,212.838959 207.406555,216.752975 
	C210.133286,223.226471 213.121811,229.589691 215.655762,235.958862 
	C210.914001,231.021851 206.545029,226.099274 202.105820,221.240891 
	C200.144135,219.093964 198.040039,217.077133 195.955933,214.630463 
	C192.272186,203.173157 188.633102,192.086639 184.994003,181.000107 
	C185.654739,177.276779 186.315491,173.553467 186.987823,169.415070 
	C187.964096,170.363174 189.132080,171.626587 189.858505,173.106720 
	C193.076584,179.663696 196.167847,186.282928 199.651581,192.939209 
z"/>
<path fill="#FF4928" opacity="1.000000" stroke="none" 
	d="
M184.716370,180.780243 
	C188.633102,192.086639 192.272186,203.173157 195.956451,215.023254 
	C199.166504,227.569901 206.693466,236.826553 213.835693,246.265411 
	C217.674194,251.338226 221.929840,256.095428 225.653748,260.957581 
	C217.862534,253.924957 210.316147,247.030838 203.005157,239.895554 
	C198.807343,235.798630 194.991272,231.310562 191.001678,226.999237 
	C191.000000,226.999893 190.998169,226.993179 190.998169,226.993179 
	C187.175552,218.020187 182.861450,209.216476 179.693008,200.018143 
	C177.353409,193.226028 176.507721,185.919327 174.994385,178.421600 
	C175.812927,173.838852 176.633530,169.676422 177.724213,165.257141 
	C179.258896,167.907913 180.558090,170.801132 181.777008,173.727768 
	C182.716522,175.983536 183.555206,178.281281 184.716370,180.780243 
z"/>
<path fill="#FE4934" opacity="1.000000" stroke="none" 
	d="
M207.000610,252.997559 
	C204.147705,250.645081 201.240982,248.354309 198.455826,245.924164 
	C195.146500,243.036682 191.941666,240.029419 188.348221,237.036285 
	C183.696838,229.904007 179.388794,222.809509 175.041290,215.359634 
	C172.701202,208.257858 170.400558,201.511459 168.053619,194.382339 
	C169.217743,195.421799 170.641891,196.713516 171.602921,198.287918 
	C176.739227,206.702499 181.711975,215.217087 186.870544,223.617722 
	C187.674057,224.926239 189.142807,225.826279 190.651062,226.954193 
	C190.998169,226.993179 191.000000,226.999893 191.007172,227.372772 
	C191.823029,229.517746 192.416809,231.431900 193.477859,233.037186 
	C197.909012,239.741165 202.480530,246.352356 207.000610,252.997559 
z"/>
<path fill="#FE5718" opacity="1.000000" stroke="none" 
	d="
M216.000000,235.999390 
	C213.121811,229.589691 210.133286,223.226471 207.406555,216.752975 
	C205.757919,212.838959 204.515335,208.753906 203.046051,204.373474 
	C204.339920,205.343674 205.814484,206.576736 206.993027,208.047089 
	C212.808868,215.302979 218.546326,222.621704 224.655731,229.958832 
	C227.091537,232.924179 228.912048,236.095917 231.317001,238.735123 
	C252.743790,262.248993 279.850250,275.260254 310.726471,280.957245 
	C322.808350,283.186493 335.016663,283.798523 347.588379,281.055725 
	C352.045135,281.999176 356.091492,282.999451 360.500488,284.354065 
	C360.552551,285.079498 360.303284,285.688446 359.922302,285.786743 
	C351.755310,287.893127 343.561890,289.898163 335.407227,292.050323 
	C334.185272,292.372833 333.131561,293.332611 331.588257,293.941620 
	C329.724274,293.591339 328.277679,293.073425 326.819031,293.036957 
	C311.076904,292.643188 296.148468,288.532562 281.451019,283.291260 
	C256.162842,274.273163 235.314590,258.854584 217.554184,238.994110 
	C216.827972,238.182022 216.508804,237.005905 216.000000,235.999390 
z"/>
<path fill="#FE4E19" opacity="1.000000" stroke="none" 
	d="
M332.000000,293.997559 
	C333.131561,293.332611 334.185272,292.372833 335.407227,292.050323 
	C343.561890,289.898163 351.755310,287.893127 359.922302,285.786743 
	C360.303284,285.688446 360.552551,285.079498 360.930969,284.354187 
	C366.461243,283.009888 371.923523,282.018585 377.386322,281.030365 
	C379.311188,280.682159 381.237427,280.341644 383.580139,279.996338 
	C387.152100,280.813416 390.306976,281.631775 393.730927,282.723083 
	C389.803497,285.817963 385.606995,288.639832 380.817688,291.780457 
	C372.482849,293.732391 364.740814,295.365570 356.710693,296.717194 
	C348.281738,295.622925 340.140869,294.810242 332.000000,293.997559 
z"/>
<path fill="#FF4928" opacity="1.000000" stroke="none" 
	d="
M356.998779,296.998779 
	C364.740814,295.365570 372.482849,293.732391 380.613037,292.049622 
	C383.823334,292.301392 386.646698,292.852570 389.467194,292.838196 
	C392.677551,292.821869 395.885284,292.300659 399.548309,291.998230 
	C400.001770,293.064911 400.001099,294.132263 400.000793,295.599792 
	C393.891083,298.234497 387.780975,300.468994 381.334808,302.852356 
	C368.977448,304.001007 356.956085,305.000824 344.176849,305.718353 
	C338.279663,304.623657 333.140381,303.811218 328.292419,302.716309 
	C330.053528,302.288879 331.548828,302.269806 332.988861,301.978027 
	C340.999573,300.354828 348.996887,298.665497 356.998779,296.998779 
z"/>
<path fill="#EF5299" opacity="1.000000" stroke="none" 
	d="
M307.462067,354.999023 
	C296.090668,351.978943 285.099854,349.214264 274.300415,345.837524 
	C268.410492,343.995911 262.844940,341.116791 257.064728,338.354004 
	C257.164215,338.001526 257.332123,338.000610 258.147827,338.008362 
	C264.172089,339.504272 269.584137,340.874481 274.918884,342.498627 
	C299.739166,350.055237 325.170044,352.626129 351.350250,351.955017 
	C352.796143,351.611725 353.898224,351.302399 355.235596,351.255859 
	C356.980469,351.343140 358.490021,351.167603 360.427673,350.993164 
	C362.567810,350.994110 364.279816,350.994019 365.991821,350.993896 
	C372.472412,350.808929 378.953033,350.623932 385.717957,350.718872 
	C385.035156,351.783264 384.067993,352.567810 383.050415,353.676147 
	C367.520325,355.000000 352.051727,356.451538 336.556824,356.833160 
	C327.032867,357.067749 317.468597,355.666168 307.462067,354.999023 
z"/>
<path fill="#F55391" opacity="1.000000" stroke="none" 
	d="
M351.006439,351.989014 
	C325.170044,352.626129 299.739166,350.055237 274.918884,342.498627 
	C269.584137,340.874481 264.172089,339.504272 258.399658,338.007324 
	C256.405792,336.726807 254.996155,334.982788 253.180130,334.260376 
	C239.039322,328.635254 226.283096,320.629944 213.950897,311.865967 
	C213.577728,311.600769 213.386337,311.079742 213.054031,310.340210 
	C212.997864,310.002441 213.000000,310.000000 213.374969,310.005737 
	C215.396912,310.724274 217.163071,311.244720 218.672363,312.179749 
	C233.236069,321.202423 248.591187,328.459076 264.649353,334.513306 
	C291.281342,344.554138 318.625488,350.095673 347.103577,350.083282 
	C348.404266,350.082703 349.705475,351.325378 351.006439,351.989014 
z"/>
<path fill="#FB5288" opacity="1.000000" stroke="none" 
	d="
M351.350250,351.955017 
	C349.705475,351.325378 348.404266,350.082703 347.103577,350.083282 
	C318.625488,350.095673 291.281342,344.554138 264.649353,334.513306 
	C248.591187,328.459076 233.236069,321.202423 218.672363,312.179749 
	C217.163071,311.244720 215.396912,310.724274 213.376190,310.004517 
	C209.295197,306.644501 205.705368,303.149719 201.860107,299.963226 
	C186.266190,287.040802 172.412903,272.535461 161.040985,255.348999 
	C164.659058,258.650085 168.341873,262.274384 171.967590,265.954895 
	C177.645050,271.718109 183.262924,277.540222 188.975616,283.268005 
	C189.477249,283.770966 190.493118,283.761047 191.634766,283.994080 
	C192.166199,283.999054 192.333008,283.999359 192.750046,283.999817 
	C194.267395,286.071594 195.079910,288.726593 196.872711,290.123627 
	C212.973709,302.670349 229.504272,314.538849 248.188538,323.150269 
	C269.242981,332.854126 290.948730,340.295776 314.052307,342.985107 
	C325.695862,344.340485 337.418518,345.016083 350.019470,345.999756 
	C360.722656,345.675171 370.510803,345.311798 380.302002,345.073059 
	C381.524872,345.043243 382.763824,345.672516 383.995361,345.996399 
	C379.212860,346.995941 374.423309,347.963531 369.652893,349.017670 
	C368.462341,349.280731 367.333527,349.822906 366.084076,350.615356 
	C364.279816,350.994019 362.567810,350.994110 360.190887,350.733154 
	C358.017426,350.645721 356.508850,350.819397 355.000305,350.993073 
	C353.898224,351.302399 352.796143,351.611725 351.350250,351.955017 
z"/>
<path fill="#F34885" opacity="1.000000" stroke="none" 
	d="
M384.390686,345.945984 
	C382.763824,345.672516 381.524872,345.043243 380.302002,345.073059 
	C370.510803,345.311798 360.722656,345.675171 350.464355,345.999573 
	C351.444427,345.332672 352.839874,344.272858 354.352081,344.065918 
	C362.611938,342.935516 370.900452,342.014771 379.590790,341.011475 
	C389.940674,339.522125 399.926514,338.305542 409.807770,336.512573 
	C434.392059,332.051575 457.666107,323.539246 480.637482,313.044952 
	C477.405762,315.459839 474.100098,318.591461 470.172516,320.253693 
	C449.709869,328.913818 428.868134,336.555939 407.124603,341.422150 
	C399.715759,343.080261 392.234283,344.413788 384.390686,345.945984 
z"/>
<path fill="#FB5288" opacity="1.000000" stroke="none" 
	d="
M159.047607,252.318512 
	C159.636871,252.455750 160.271912,252.910278 160.952866,253.682098 
	C160.363632,253.544876 159.728500,253.090347 159.047607,252.318512 
z"/>
<path fill="#FB5288" opacity="1.000000" stroke="none" 
	d="
M156.047638,248.318436 
	C156.636795,248.455811 157.271759,248.910385 157.952454,249.682251 
	C157.363266,249.544922 156.728363,249.090286 156.047638,248.318436 
z"/>
<path fill="#FE4D56" opacity="1.000000" stroke="none" 
	d="
M367.726196,325.726868 
	C363.027924,326.668304 358.058014,327.351257 353.082642,327.992096 
	C350.981323,328.262756 348.868561,328.444702 346.379883,328.834686 
	C309.952881,329.061371 276.052155,320.371368 244.258652,303.577606 
	C220.748352,291.159180 201.164352,273.899261 184.259674,253.492126 
	C182.607651,251.497833 180.810638,249.623627 179.040161,247.347443 
	C177.003387,242.916733 175.007401,238.832230 173.004486,234.373779 
	C174.769913,234.974625 176.542267,235.949402 178.658234,236.962830 
	C183.741623,242.936340 188.426529,248.916031 193.231674,254.797485 
	C206.576797,271.131866 222.442444,284.488068 240.552948,295.315308 
	C262.817169,308.625824 286.949371,316.685699 312.383179,320.734222 
	C324.277252,322.627563 336.414551,323.029266 348.453278,323.955475 
	C352.010895,324.229156 355.608368,323.985352 359.590820,323.988403 
	C362.480164,324.482544 364.966248,324.966919 367.726196,325.726868 
z"/>
<path fill="#FD4D63" opacity="1.000000" stroke="none" 
	d="
M169.046982,240.316986 
	C169.636475,240.455170 170.271896,240.910965 170.953369,241.684448 
	C170.363922,241.546310 169.728409,241.090454 169.046982,240.316986 
z"/>
<path fill="#A56DED" opacity="1.000000" stroke="none" 
	d="
M419.418335,403.985046 
	C417.704742,403.330322 416.374603,402.027191 415.122925,402.098663 
	C401.394745,402.882385 387.682098,403.933472 373.957062,404.779846 
	C370.852112,404.971313 367.715698,404.653351 364.297485,404.284943 
	C369.789215,403.009338 375.563538,401.928680 381.367859,401.045044 
	C398.296600,398.467773 415.235321,395.955750 432.174225,393.445709 
	C440.153900,392.263245 448.142944,391.143921 456.560822,389.995544 
	C456.333984,392.079407 455.674042,394.163666 455.008881,396.622742 
	C451.221680,398.234619 447.439667,399.471680 443.327637,400.853760 
	C435.277771,401.990814 427.558014,402.982880 419.418335,403.985046 
z"/>
<path fill="#9B6FF9" opacity="1.000000" stroke="none" 
	d="
M313.034058,411.290833 
	C313.551270,411.176727 314.102539,411.349823 314.826569,411.762268 
	C314.355591,411.860413 313.711853,411.719208 313.034058,411.290833 
z"/>
<path fill="#FF5031" opacity="1.000000" stroke="none" 
	d="
M328.001099,302.998779 
	C333.140381,303.811218 338.279663,304.623657 343.709473,305.718994 
	C338.329865,306.667938 332.671783,307.477905 326.985748,307.953857 
	C322.543579,308.325653 318.066772,308.282776 313.303284,308.711395 
	C284.027496,304.391052 257.355164,293.896545 233.655289,276.619232 
	C224.233200,269.750458 215.907730,261.377411 207.041809,253.343384 
	C202.480530,246.352356 197.909012,239.741165 193.477859,233.037186 
	C192.416809,231.431900 191.823029,229.517746 191.008850,227.372116 
	C194.991272,231.310562 198.807343,235.798630 203.005157,239.895554 
	C210.316147,247.030838 217.862534,253.924957 225.853577,261.225220 
	C238.764725,271.238342 251.738892,279.865540 266.033295,286.664307 
	C285.736023,296.035431 306.424957,301.047852 328.001099,302.998779 
z"/>
<path fill="#FE5223" opacity="1.000000" stroke="none" 
	d="
M328.292419,302.716309 
	C306.424957,301.047852 285.736023,296.035431 266.033295,286.664307 
	C251.738892,279.865540 238.764725,271.238342 226.197098,261.262665 
	C221.929840,256.095428 217.674194,251.338226 213.835693,246.265411 
	C206.693466,236.826553 199.166504,227.569901 196.001099,215.394012 
	C198.040039,217.077133 200.144135,219.093964 202.105820,221.240891 
	C206.545029,226.099274 210.914001,231.021851 215.655762,235.958862 
	C216.508804,237.005905 216.827972,238.182022 217.554184,238.994110 
	C235.314590,258.854584 256.162842,274.273163 281.451019,283.291260 
	C296.148468,288.532562 311.076904,292.643188 326.819031,293.036957 
	C328.277679,293.073425 329.724274,293.591339 331.588257,293.941620 
	C340.140869,294.810242 348.281738,295.622925 356.710693,296.717194 
	C348.996887,298.665497 340.999573,300.354828 332.988861,301.978027 
	C331.548828,302.269806 330.053528,302.288879 328.292419,302.716309 
z"/>
<path fill="#F55391" opacity="1.000000" stroke="none" 
	d="
M355.235596,351.255859 
	C356.508850,350.819397 358.017426,350.645721 359.762756,350.732056 
	C358.490021,351.167603 356.980469,351.343140 355.235596,351.255859 
z"/>
</svg>