<?xml version="1.0" encoding="UTF-8"?>
<svg width="512" height="512" viewBox="0 0 512 512" xmlns="http://www.w3.org/2000/svg">
  <!-- Big Sur style dark background -->
  <rect x="0" y="0" width="512" height="512" fill="#1a1a2e"/>
  
  <!-- Heart shape with gradient -->
  <defs>
    <linearGradient id="heartGradient" x1="0%" y1="0%" x2="100%" y2="100%">
      <stop offset="0%" stop-color="#FF5500"/>
      <stop offset="20%" stop-color="#FF4455"/>
      <stop offset="45%" stop-color="#DD40A0"/>
      <stop offset="70%" stop-color="#9955EE"/>
      <stop offset="100%" stop-color="#6677FF"/>
    </linearGradient>
    <clipPath id="heartClip">
      <path d="M152 95 C92 95 55 145 55 205 C55 250 72 292 105 335 C138 378 185 418 240 450 C265 437 305 408 342 365 C379 322 408 272 408 218 C408 163 370 125 325 125 C295 125 270 142 253 167 C245 180 239 195 236 210 C233 185 225 163 213 143 C196 117 175 95 152 95 Z"/>
    </clipPath>
  </defs>
  
  <!-- Heart centered -->
  <g transform="translate(23, 20)">
    <path d="M152 95 C92 95 55 145 55 205 C55 250 72 292 105 335 C138 378 185 418 240 450 C265 437 305 408 342 365 C379 322 408 272 408 218 C408 163 370 125 325 125 C295 125 270 142 253 167 C245 180 239 195 236 210 C233 185 225 163 213 143 C196 117 175 95 152 95 Z" fill="url(#heartGradient)"/>
    
    <!-- Wave lines -->
    <g clip-path="url(#heartClip)">
      <path d="M45 295 C90 312 135 277 175 243 C215 209 270 175 325 158 C380 141 420 150 445 167" fill="none" stroke="white" stroke-width="6" stroke-linecap="round" opacity="0.95"/>
      <path d="M45 355 C90 377 135 342 175 308 C215 274 270 240 325 223 C380 206 420 215 445 232" fill="none" stroke="white" stroke-width="6" stroke-linecap="round" opacity="0.95"/>
      <path d="M45 415 C90 442 135 407 175 373 C215 339 270 305 325 288 C380 271 420 280 445 297" fill="none" stroke="white" stroke-width="6" stroke-linecap="round" opacity="0.95"/>
    </g>
  </g>
</svg>
